<svg xmlns="http://www.w3.org/2000/svg" viewBox="-400 -400 800 800" xmlns:xlink="http://www.w3.org/1999/xlink">
  <circle cx="0" cy="0" r="375.087" stroke="#bcd" fill="black" style="stroke-width:15"/>
  <path id="center" style="fill:#fff" d="
    M 0 0
    Q -10 0 -20 20
    L -80 140
    L -60 180
    L -30 180
    L -30 160
    L -20 170
    L 0 170
    L 0 80
    L -5 80
    L -15 65
    L 0 65
    L 0 60
    L -18 60
    L -5 20
    L 0 20
    Z

    " />

  <use href="#center" transform="scale(-1 1)" />

  <g style="fill:#a23">
  <path id="trailOuter" d="
    M -60 195
    C -60 250 -80 300 -120 343 
    C -100 351 -100 351 -80 355
    C -50 300 -40 250 -40 195
    C -40 180 -60 180 -60 195
    Z
  " />
  </g>
  <g style="fill:#862">
  <path id="trailInner" d="
    M -35 195
    C -35 280 -50 310 -70 358
    C -50 362 -50 362 -30 363
    C -20 320 -15 250 -15 195
    C -15 180 -35 180 -35 195
    Z
  " />
  </g>
  <path id="trailCenter" style="fill:#738" d="
    M -10 195
    C -10 300 -20 350 -20 364
    C 0 365 0 365 20 364
    C 20 350 10 300 10 195
    C 10 180 -10 180 -10 195
    Z
  " />

  <use href="#trailOuter" style="fill:#33e" transform="scale(-1 1)" />
  <use href="#trailInner" style="fill:#3a3" transform="scale(-1 1)" />

  <g id="wings" style="fill:#bcd">
    <path id="root" d="
      M -85 140
      C 0 0 -180 -40 -90 -130
      C -90 -135 -90 -135 -100 -132
      C -188 -90 -75 40 -95 100
      C -105 120 -100 140 -85 140
      Z
    " />

    <path d="
      M -120 -125
      C -40 -150 -140 -280 -100 -320
      C -200 -300 -110 -180 -120 -125
      Z
    " />

    <path d="
      M -140 -80
      C -100 -170 -200 -200 -170 -280
      C -250 -230 -180 -150 -140 -80
      Z
    " />

    <path d="
      M -120 5
      C -150 -170 -250 -120 -230 -220
      C -300 -100 -220 -150 -120 5
      Z
    " />

    <path d="
      M -100 60
      C -145 -90 -300 -80 -280 -150
      C -350 -20 -120 -10 -100 60
      Z
    " />

    <path d="
      M -105 120
      C -60 -30 -300 35 -315 -70
      C -370 80 -120 40 -105 120
      Z
    " />

    <path d="
      M -100 135
      C -120 75 -270 75 -300 40
      C -300 150 -120 150 -100 135
      Z
    " />

    <path d="
      M -85 145
      C -120 135 -180 170 -260 130
      C -200 250 -120 170 -85 145
      Z
    " />

    <path d="
      M -85 150
      C -120 185 -180 220 -210 200
      C -170 250 -80 220 -85 150
      Z
    " />
  </g>

  <use href="#wings" transform="scale(-1 1)" />

</svg>
