<svg width="100%" height="100%" xmlns="http://www.w3.org/2000/svg" viewBox="-400 -550 800 800"  xmlns:xlink="http://www.w3.org/1999/xlink" preserveAspectRatio="xMinYMin meet"><rect id="svgEditorBackground" x="-400" y="-550" width="800" height="800" style="fill: none; stroke: none;"/>
  <!-- Circle -->
  <circle cx="0" cy="-150" r="375.087" stroke="lightgray" fill="black" style="stroke-width:15"/>
  <!-- Body center -->
  <path id="center" fill-rule="evenodd" transform="scale(1 -1)" d="M0,-100l-20,12q0,150,-20,150l20,40q20,40,40,0l20,-40q-20,0,-20,-150Zm-20,175q20,20,40,0q-20,40,-40,0Z" style="fill:ghostwhite;"/>

  <!-- Body left wing -->
  <path id="leftWing" transform="scale(1 -1)" d="M-25,-88q0,144,-18,144l-30,-60q0,20,-10,20q-10,0,-10,-20l0,-60q0,-20,10,-20q10,0,10,10Z" style="fill:ghostwhite;"/>

  <g id="leftFeathers">
    <!-- Feather left 1 -->
    <path d="M -98.72727298729569 2.303030967695605 C -173.2121210098508 -85.51515197752656 -92.54545402529189 -167.15151596071328 -195.39393806459208 -429.45454692840997 C 6.181818962063286 -399.15151691441685 -150 -80 -98.72727298729569 2.303030967695605 z" style="fill:blue;"/>

    <!-- Feather left 2 -->
    <path d="M -99.03030300148427 14.54545497897373 C -171.87878704064445 28.787879943823242 -160 -120 -290.909090042057 -332.00000095369836 C -107.39393901825878 -352.3636379241728 -184.4848480224759 -13.51515102379873 -99.03030300148427 14.54545497897373 z" style="fill:crimson;"/>

    <!-- Feather left 3 -->
    <path d="M -98.06060600290165 27.909090995774903 C -183.51515102390127 47.45454597473262 -178.72727298733935 -10.303030014050293 -343.2121210097995 -213.57575798033906 C -183.51515102389902 -245.51515197750865 -200 30 -98.06060600290165 27.909090995774903 z" style="fill:gold"/>

    <!-- Feather left 4 -->
    <path d="M -99.03030300151522 40.24242401129044 C -187.9999990463264 77.75757598884336 -193.63636493686698 41.27272701266689 -349.84848499293804 -114.75757694245029 C -207.75757598870578 -129.6969699859341 -235.8181819916395 53.87878799450283 -99.03030300151522 40.24242401129044 z" style="fill:darkorchid"/>

    <!-- Feather left 5 -->
    <path d="M -96.12121200569618 51.575757026622846 C -130.5454530716339 80.60606002814434 -187.3939390182051 156.84848594670223 -329.3939399719452 -22.000000953681738 C -220.60606002804832 -31.939393997246384 -233.87878799437976 99.69696998595674 -96.12121200569618 51.575757026622846 z" style="fill:green"/>
  </g>
  <!-- Mirror to right -->
  <use href="#leftWing" transform="scale(-1 1)"/>
  <use href="#leftFeathers" transform="scale(-1 1)"/>

<text style="fill:black;font-family:Arial Black;font-size:20px" x="-152.727" y="110.364" id="e1_texte">ANGELS</text></svg>