<svg width="800" height="800" xmlns="http://www.w3.org/2000/svg" viewBox="-400 -400 800 800" xmlns:xlink="http://www.w3.org/1999/xlink">
  <!-- Circle -->
  <circle cx="0" cy="0" r="375.087" stroke="lightgray" fill="black" style="stroke-width:15"/>
  <!-- Body center -->
  <path id="center" fill-rule="evenodd" d="
    M 0 250
    l -20 -12
    q 0 -150 -20 -150
    l 20 -40
    q 20 -40 40 0
    l 20 40
    q -20 0 -20 150
    Z
    m -20 -175
    q 20 -20 40 0
    q -20 -40 -40 0
    Z" style="fill:ghostwhite;"/>

  <!-- Body left wing -->
  <path id="leftWing" d="
    M -25 238
    q 0 -144 -18 -144
    l -30 60
    q 0 -20 -10 -20
    q -10 0 -10 20
    l 0 60
    q 0 20 10 20
    q 10 0 10 -10
    Z" style="fill:ghostwhite;"/>

  <g id="leftFeathers">
    <!-- Feather left 1 -->
    <path d="
      M -100 153
      C -163 114 -93 -17 -195 -279
      C 6 -249 -150 70 -100 153
      z" style="fill:blue;"/>

    <!-- Feather left 2 -->
    <path d="
      M -100 165
      C -172 179 -160 30 -291 -182
      C -107 -202 -184 136 -100 165
      z" style="fill:crimson;"/>

    <!-- Feather left 3 -->
    <path d="
      M -100 177
      C -184 197 -179 140 -343 -64
      C -184 -96 -200 180 -100 177
      z" style="fill:gold"/>

    <!-- Feather left 4 -->
    <path d="
      M -100 189
      C -188 228 -194 191 -350 35
      C -208 20 -236 204 -100 189
      z" style="fill:darkorchid"/>

    <!-- Feather left 5 -->
    <path d="
      M -100 201
      C -131 231 -187 307 -329 128
      C -221 118 -234 250 -100 201
      z" style="fill:green"/>
  </g>
  <!-- Mirror to right -->
  <use href="#leftWing" transform="scale(-1 1)"/>
  <use href="#leftFeathers" transform="scale(-1 1)"/>
</svg>
