<svg  xmlns="http://www.w3.org/2000/svg" viewBox="-450 -450 900 900" xmlns:xlink="http://www.w3.org/1999/xlink">
  <defs>
    <path id="circleCW" fill="black" stroke="#bcd" style="stroke-width:15" d="
      M 0  377
      a 377 377 0 0 1  0 -754
      a 377 377 0 0 1  0  754
      Z
    " />
    <path id="circleCCW" fill="black" stroke="#bcd" style="stroke-width:15" d="
      M 0 -438 
      a 438 438 0 0 0  0  876
      a 438 438 0 0 0  0 -876
      Z
    " />
  </defs>
  <circle cs="0" cy="0" r="450" fill="black" />
  <path fill="#bcd" d="
    M -368 0
    a 368 368 0 0 1  736 0
    a 368 368 0 0 1 -736 0
    Z
    M -450 0
    a 450 450 0 0 0  900 0
    a 450 450 0 0 0 -900 0
    Z
  " />
  <text fill="#345" font-size="84" style="font-family: arial;" font-weight="bold" letter-spacing="4" word-spacing="30">
    <textPath xlink:href="#circleCW" text-anchor="middle" startOffset="50%">
      ONGSTRAY ALONAY
    </textPath>
  </text>
  <text fill="#345" font-size="84" style="font-family: arial;" font-weight="bold" letter-spacing="10" word-spacing="20">
    <textPath xlink:href="#circleCCW" text-anchor="middle" startOffset="50%">
      ERSTRONGAY OGETHERTAY
    </textPath>
  </text>

  <path id="planet" fill="#46f" d="
    M -60 40
    a 60 60 0 0 1  120 0
    a 60 60 0 0 1 -120 0
    Z
  " />

  <path id="sun" fill="#fff" d="
    M -35.0 -12.4
    A 40 40 0 0 1  35.0 -12.4
    A 63 63 0 0 0 -35.0 -12.4
    Z
  " />

    <path id="crown1" fill="#fff" d="
    M -39.0 -11.2
    A 43 43 0 0 1  -35.2 -17.7
    L -361.9 -47.6
    A 365 365 0 0 0  -361.9 47.6
    Z
  " />

  <path id="crown2" fill="#fff" d="
    M -30.4 -23.4
    A 43 43 0 0 1  -24.7 -28.2
    L -289.6 -222.2
    A 365 365 0 0 0  -337.2 -139.7
    Z
  " />

  <path id="crown3" fill="#fff" d="
    M -18.2 -32.0
    A 43 43 0 0 1  -11.1 -34.6
    L -139.7 -337.2
    A 365 365 0 0 0  -222.2 -289.6
    Z
  " />

  <path id="crown4" fill="#fff" d="
    M -3.7 -35.9
    A 43 43 0 0 1  3.7 -35.9
    L 47.6 -361.9
    A 365 365 0 0 0  -47.6 -361.9
    Z
  " />

  <path id="crown5" fill="#fff" d="
    M 11.1 -34.6
    A 43 43 0 0 1  18.2 -32.0
    L 222.2 -289.6
    A 365 365 0 0 0  139.7 -337.2
    Z
  " />

  <path id="crown6" fill="#fff" d="
    M 24.7 -28.2
    A 43 43 0 0 1  30.4 -23.4
    L 337.2 -139.7
    A 365 365 0 0 0  289.6 -222.2
    Z
  " />

  <path id="crown7" fill="#fff" d="
    M 35.2 -17.7
    A 43 43 0 0 1  39.0 -11.2
    L 361.9 47.6
    A 365 365 0 0 0  361.9 -47.6
    Z
  " />


    <path id="star0" fill="#fff" d="
    M -270.0 80.0
    L -262.9 92.9
    L -250.0 100.0
    L -262.9 107.1
    L -270.0 120.0
    L -277.1 107.1
    L -290.0 100.0
    L -277.1 92.9
    Z
  " />

  <path id="star1" fill="#fff" d="
    M -210.0 60.0
    L -202.9 72.9
    L -190.0 80.0
    L -202.9 87.1
    L -210.0 100.0
    L -217.1 87.1
    L -230.0 80.0
    L -217.1 72.9
    Z
  " />

  <path id="star2" fill="#fff" d="
    M -150.0 30.0
    L -142.9 42.9
    L -130.0 50.0
    L -142.9 57.1
    L -150.0 70.0
    L -157.1 57.1
    L -170.0 50.0
    L -157.1 42.9
    Z
  " />

  <path id="star3" fill="#fff" d="
    M -220.0 110.0
    L -212.9 122.9
    L -200.0 130.0
    L -212.9 137.1
    L -220.0 150.0
    L -227.1 137.1
    L -240.0 130.0
    L -227.1 122.9
    Z
  " />

  <path id="star4" fill="#fff" d="
    M -140.0 100.0
    L -132.9 112.9
    L -120.0 120.0
    L -132.9 127.1
    L -140.0 140.0
    L -147.1 127.1
    L -160.0 120.0
    L -147.1 112.9
    Z
  " />

  <path id="star5" fill="#fff" d="
    M -130.0 160.0
    L -122.9 172.9
    L -110.0 180.0
    L -122.9 187.1
    L -130.0 200.0
    L -137.1 187.1
    L -150.0 180.0
    L -137.1 172.9
    Z
  " />

  <path id="star6" fill="#fff" d="
    M -80.0 230.0
    L -72.9 242.9
    L -60.0 250.0
    L -72.9 257.1
    L -80.0 270.0
    L -87.1 257.1
    L -100.0 250.0
    L -87.1 242.9
    Z
  " />

  <path id="star7" fill="#fff" d="
    M -20.0 180.0
    L -12.9 192.9
    L 0.0 200.0
    L -12.9 207.1
    L -20.0 220.0
    L -27.1 207.1
    L -40.0 200.0
    L -27.1 192.9
    Z
  " />

  <path id="star8" fill="#fff" d="
    M 150.0 90.0
    L 157.1 102.9
    L 170.0 110.0
    L 157.1 117.1
    L 150.0 130.0
    L 142.9 117.1
    L 130.0 110.0
    L 142.9 102.9
    Z
  " />

  <path id="star9" fill="#fff" d="
    M 220.0 40.0
    L 227.1 52.9
    L 240.0 60.0
    L 227.1 67.1
    L 220.0 80.0
    L 212.9 67.1
    L 200.0 60.0
    L 212.9 52.9
    Z
  " />

  <path id="star10" fill="#fff" d="
    M 140.0 180.0
    L 147.1 192.9
    L 160.0 200.0
    L 147.1 207.1
    L 140.0 220.0
    L 132.9 207.1
    L 120.0 200.0
    L 132.9 192.9
    Z
  " />

  <path id="star11" fill="#fff" d="
    M 200.0 120.0
    L 207.1 132.9
    L 220.0 140.0
    L 207.1 147.1
    L 200.0 160.0
    L 192.9 147.1
    L 180.0 140.0
    L 192.9 132.9
    Z
  " />


</svg>
