<svg  xmlns="http://www.w3.org/2000/svg" viewBox="-450 -450 900 900" xmlns:xlink="http://www.w3.org/1999/xlink">
  <defs>
    <path id="circleCW" fill="black" stroke="#bcd" style="stroke-width:15" d="
      M 0  377
      a 377 377 0 0 1  0 -754
      a 377 377 0 0 1  0  754
      Z
    " />
    <path id="circleCCW" fill="black" stroke="#bcd" style="stroke-width:15" d="
      M 0 -438 
      a 438 438 0 0 0  0  876
      a 438 438 0 0 0  0 -876
      Z
    " />
  </defs>
  <circle cs="0" cy="0" r="450" fill="black" />
  <path fill="#bcd" d="
    M -368 0
    a 368 368 0 0 1  736 0
    a 368 368 0 0 1 -736 0
    Z
    M -450 0
    a 450 450 0 0 0  900 0
    a 450 450 0 0 0 -900 0
    Z
  " />
  <text fill="#345" font-size="84" style="font-family: arial;" font-weight="bold" letter-spacing="4" word-spacing="30">
    <textPath xlink:href="#circleCW" text-anchor="middle" startOffset="50%">
      ONGSTRAY ALONAY
    </textPath>
  </text>
  <text fill="#345" font-size="84" style="font-family: arial;" font-weight="bold" letter-spacing="10" word-spacing="20">
    <textPath xlink:href="#circleCCW" text-anchor="middle" startOffset="50%">
      ERSTRONGAY OGETHERTAY
    </textPath>
  </text>

  <path id="planet" fill="#46f" d="
    M -60 20
    a 60 60 0 0 1  120 0
    a 60 60 0 0 1 -120 0
    Z
  " />

  <path id="sun" fill="#fff" d="
    M -35.0 -32.4
    A 40 40 0 0 1  35.0 -32.4
    A 63 63 0 0 0 -35.0 -32.4
    Z
  " />

  <path id="crown$cnt" fill="#fff" d=" M -39.0 -31.2 A 43 43 0 0 1  -35.2 -37.7 L -361.9 -47.6 A 365 365 0 0 0  -361.9 47.6 Z " /> <path id="crown$cnt" fill="#fff" d=" M -30.4 -43.4 A 43 43 0 0 1  -24.7 -48.2 L -289.6 -222.2 A 365 365 0 0 0  -337.2 -139.7 Z " /> <path id="crown$cnt" fill="#fff" d=" M -18.2 -52.0 A 43 43 0 0 1  -11.1 -54.6 L -139.7 -337.2 A 365 365 0 0 0  -222.2 -289.6 Z " /> <path id="crown$cnt" fill="#fff" d=" M -3.7 -55.9 A 43 43 0 0 1  3.7 -55.9 L 47.6 -361.9 A 365 365 0 0 0  -47.6 -361.9 Z " /> <path id="crown$cnt" fill="#fff" d=" M 11.1 -54.6 A 43 43 0 0 1  18.2 -52.0 L 222.2 -289.6 A 365 365 0 0 0  139.7 -337.2 Z " /> <path id="crown$cnt" fill="#fff" d=" M 24.7 -48.2 A 43 43 0 0 1  30.4 -43.4 L 337.2 -139.7 A 365 365 0 0 0  289.6 -222.2 Z " /> <path id="crown$cnt" fill="#fff" d=" M 35.2 -37.7 A 43 43 0 0 1  39.0 -31.2 L 361.9 47.6 A 365 365 0 0 0  361.9 -47.6 Z " />

  <path id="star$st" fill="#fff" d=" M -270 80
    L -262.928932188135 92.9289321881345
    L -250 100
    L -262.928932188135 107.071067811865
    L -270 120
    L -277.071067811865 107.071067811865
    L -290 100
    L -277.071067811865 92.9289321881345
    Z " /> <path id="star$st" fill="#fff" d=" M -210 60
    L -202.928932188135 72.9289321881345
    L -190 80
    L -202.928932188135 87.0710678118655
    L -210 100
    L -217.071067811865 87.0710678118655
    L -230 80
    L -217.071067811865 72.9289321881345
    Z " /> <path id="star$st" fill="#fff" d=" M -150 30
    L -142.928932188135 42.9289321881345
    L -130 50
    L -142.928932188135 57.0710678118655
    L -150 70
    L -157.071067811865 57.0710678118655
    L -170 50
    L -157.071067811865 42.9289321881345
    Z " /> <path id="star$st" fill="#fff" d=" M -220 110
    L -212.928932188135 122.928932188135
    L -200 130
    L -212.928932188135 137.071067811865
    L -220 150
    L -227.071067811865 137.071067811865
    L -240 130
    L -227.071067811865 122.928932188135
    Z " /> <path id="star$st" fill="#fff" d=" M -140 100
    L -132.928932188135 112.928932188135
    L -120 120
    L -132.928932188135 127.071067811865
    L -140 140
    L -147.071067811865 127.071067811865
    L -160 120
    L -147.071067811865 112.928932188135
    Z " /> <path id="star$st" fill="#fff" d=" M -130 160
    L -122.928932188135 172.928932188135
    L -110 180
    L -122.928932188135 187.071067811865
    L -130 200
    L -137.071067811865 187.071067811865
    L -150 180
    L -137.071067811865 172.928932188135
    Z " /> <path id="star$st" fill="#fff" d=" M -80 230
    L -72.9289321881345 242.928932188135
    L -60 250
    L -72.9289321881345 257.071067811865
    L -80 270
    L -87.0710678118655 257.071067811865
    L -100 250
    L -87.0710678118655 242.928932188135
    Z " /> <path id="star$st" fill="#fff" d=" M -20 180
    L -12.9289321881345 192.928932188135
    L 0 200
    L -12.9289321881345 207.071067811865
    L -20 220
    L -27.0710678118655 207.071067811865
    L -40 200
    L -27.0710678118655 192.928932188135
    Z " /> <path id="star$st" fill="#fff" d=" M 150 90
    L 157.071067811865 102.928932188135
    L 170 110
    L 157.071067811865 117.071067811865
    L 150 130
    L 142.928932188135 117.071067811865
    L 130 110
    L 142.928932188135 102.928932188135
    Z " /> <path id="star$st" fill="#fff" d=" M 220 40
    L 227.071067811865 52.9289321881345
    L 240 60
    L 227.071067811865 67.0710678118655
    L 220 80
    L 212.928932188135 67.0710678118655
    L 200 60
    L 212.928932188135 52.9289321881345
    Z " /> <path id="star$st" fill="#fff" d=" M 140 180
    L 147.071067811865 192.928932188135
    L 160 200
    L 147.071067811865 207.071067811865
    L 140 220
    L 132.928932188135 207.071067811865
    L 120 200
    L 132.928932188135 192.928932188135
    Z " /> <path id="star$st" fill="#fff" d=" M 200 120
    L 207.071067811865 132.928932188135
    L 220 140
    L 207.071067811865 147.071067811865
    L 200 160
    L 192.928932188135 147.071067811865
    L 180 140
    L 192.928932188135 132.928932188135
    Z " />

</svg>
