<svg width="800" height="800" xmlns="http://www.w3.org/2000/svg"
    viewBox="-450 -450 900 900" xmlns:xlink="http://www.w3.org/1999/xlink">
  <defs>
    <path id="star" fill="#ffffff" d="
      M 0.0 -20.0
      L -7.1 -7.1
      L -20.0 -0.0
      L -7.1 7.1
      L -0.0 20.0
      L 7.1 7.1
      L 20.0 0.0
      L 7.1 -7.1
      Z
    " />
  </defs>
  <circle cs="0" cy="0" r="450" fill="black" />
  <path fill="#0c2079" d="
    M -376 0
    a 376 376 0 0 1  752 0
    a 376 376 0 0 1 -752 0
    Z
    M -440 0
    a 440 440 0 0 0  880 0
    a 440 440 0 0 0 -880 0
    Z
  " />


    <path id="textupper" fill="#ffffff" fill-rule="evenodd" d="
    M 244.9 -331.1 L 262.2 -317.7 A 31.9 31.9 0 0 1 265.3 -314.9 Q 266.8 -313.5 267.7 -312 A 12.6 12.6 0 0 1 269.4 -308.7 A 8.9 8.9 0 0 1 268.5 -301.6 A 13.6 13.6 0 0 1 267.3 -299.8 A 16.8 16.8 0 0 1 265.2 -297.5 A 13.5 13.5 0 0 1 263.2 -296 A 9.8 9.8 0 0 1 258.2 -294.6 A 12.5 12.5 0 0 1 255.3 -294.9 Q 254.1 -295.2 252.7 -295.8 A 21.3 21.3 0 0 1 252.4 -295.9 A 23.1 23.1 0 0 1 249.6 -297.3 Q 248.2 -298.1 246.7 -299.2 A 43.4 43.4 0 0 1 245.7 -300 L 216.1 -322.9 L 228.8 -326.2 L 252.8 -307.5 A 11.4 11.4 0 0 0 253.7 -306.9 Q 254.6 -306.3 255.4 -306.1 A 2.7 2.7 0 0 0 255.7 -306.1 A 2.2 2.2 0 0 0 257.3 -306.6 Q 257.6 -306.9 257.9 -307.2 A 3.7 3.7 0 0 0 258.4 -308 Q 258.6 -308.5 258.6 -309 A 2.1 2.1 0 0 0 258.5 -309.6 A 3.3 3.3 0 0 0 258.1 -310.4 Q 257.5 -311.2 256.3 -312.1 L 239.1 -325.5 A 30.5 30.5 0 0 1 236.8 -327.5 Q 235.3 -328.9 234.3 -330.3 A 16.2 16.2 0 0 1 233 -332.5 A 11.7 11.7 0 0 1 232 -335 A 9.2 9.2 0 0 1 232.1 -339.6 A 11.5 11.5 0 0 1 233.5 -342.8 A 13.9 13.9 0 0 1 234.2 -343.9 A 13.9 13.9 0 0 1 236.5 -346.1 A 11.8 11.8 0 0 1 238.2 -347.3 Q 240.4 -348.5 243 -348.5 A 12.4 12.4 0 0 1 245.7 -348.2 Q 246.9 -348 248.2 -347.5 A 21.8 21.8 0 0 1 248.8 -347.3 A 23.1 23.1 0 0 1 251.6 -345.8 Q 253 -345 254.4 -344 A 43.4 43.4 0 0 1 255.5 -343.2 L 283 -321.8 L 270.3 -318.4 L 248.3 -335.5 Q 246.8 -336.7 245.7 -336.9 A 3 3 0 0 0 245.4 -337 A 2 2 0 0 0 243.9 -336.6 Q 243.6 -336.3 243.3 -336 A 4.5 4.5 0 0 0 243.3 -335.9 A 3.6 3.6 0 0 0 242.8 -335.2 Q 242.6 -334.7 242.6 -334.2 A 2 2 0 0 0 242.8 -333.6 A 3.6 3.6 0 0 0 243.2 -332.8 Q 243.7 -332.1 244.6 -331.3 A 13.8 13.8 0 0 0 244.9 -331.1 Z M 131 -375.9 L 163 -363.8 L 151.8 -357 L 115.7 -370.7 L 130 -408.2 L 173.4 -391.7 L 162.2 -384.8 L 137.9 -394 L 136.2 -389.5 L 165.9 -378.2 L 156 -372.2 L 133 -381 L 131 -375.9 Z M 6.8 -395.9 L 14.4 -388.4 L -2.2 -387.8 L -11.5 -398.1 L -30.6 -397.4 L -30.2 -386.8 L -42.6 -386.3 L -43.3 -406.8 L -8.4 -408.1 A 11.5 11.5 0 0 0 -6.2 -408.4 Q -4.9 -408.7 -3.8 -409.4 A 7.2 7.2 0 0 0 -3.6 -409.5 A 4.7 4.7 0 0 0 -2.6 -410.4 A 3.5 3.5 0 0 0 -1.8 -412.8 A 4.8 4.8 0 0 0 -2 -414.3 A 3.7 3.7 0 0 0 -3.7 -416.3 A 6.4 6.4 0 0 0 -5.4 -417 Q -6.8 -417.3 -8.8 -417.3 L -43.7 -416 L -35.9 -426.7 L -10.2 -427.7 A 40.8 40.8 0 0 1 -4.4 -427.4 A 46.3 46.3 0 0 1 -3.1 -427.3 A 22.4 22.4 0 0 1 1.9 -426 A 20 20 0 0 1 3.7 -425.3 A 14.3 14.3 0 0 1 8.8 -421.1 A 10.2 10.2 0 0 1 10.5 -417.6 Q 10.9 -416.2 11 -414.5 A 18.6 18.6 0 0 1 11 -414.1 A 13.6 13.6 0 0 1 10.4 -409.7 A 13 13 0 0 1 10.4 -409.6 A 12.4 12.4 0 0 1 8.5 -405.8 A 12.3 12.3 0 0 1 5.4 -402.8 A 13.8 13.8 0 0 1 5.3 -402.8 A 13.1 13.1 0 0 1 2 -401.3 A 15.5 15.5 0 0 1 1 -401 A 21.2 21.2 0 0 1 1.8 -400.4 Q 2.2 -400 2.7 -399.6 A 39.7 39.7 0 0 1 3.3 -399.1 A 107.6 107.6 0 0 1 4 -398.5 Q 4.8 -397.7 5.8 -396.8 A 357.9 357.9 0 0 1 6.8 -395.9 Z M -125.4 -409.7 L -111.5 -372 L -123.1 -367.7 L -128.5 -382.3 L -150.9 -374 L -145.5 -359.5 L -157.2 -355.1 L -171.1 -392.8 L -159.4 -397.1 L -154.5 -383.8 L -132.1 -392 L -137 -405.4 L -125.4 -409.7 Z M -244.7 -313.8 L -222.4 -331 L -222.5 -317.9 L -238.4 -305.6 A 30.6 30.6 0 0 1 -243.9 -302.2 A 26.4 26.4 0 0 1 -247 -300.9 A 25.5 25.5 0 0 1 -252.4 -299.8 A 21.8 21.8 0 0 1 -255.7 -299.7 A 19.9 19.9 0 0 1 -263.6 -301.7 A 18.3 18.3 0 0 1 -270.1 -307 A 18.2 18.2 0 0 1 -272.8 -312 A 16.6 16.6 0 0 1 -273.5 -314.5 A 19 19 0 0 1 -273.3 -322.5 A 21.9 21.9 0 0 1 -271.1 -328.2 A 26.7 26.7 0 0 1 -269.7 -330.4 A 30.3 30.3 0 0 1 -265.1 -335.5 A 36.4 36.4 0 0 1 -262.9 -337.4 L -240.7 -354.6 L -240.6 -341.4 L -256.6 -329.1 A 15.5 15.5 0 0 0 -258.9 -326.9 A 13.4 13.4 0 0 0 -259.8 -325.7 A 12.4 12.4 0 0 0 -261 -323.4 A 10.4 10.4 0 0 0 -261.5 -321.8 Q -262 -319.8 -261.6 -317.9 A 8.6 8.6 0 0 0 -260.1 -314.5 A 10.1 10.1 0 0 0 -259.9 -314.2 A 9.3 9.3 0 0 0 -258.1 -312.4 A 8.2 8.2 0 0 0 -256.8 -311.6 A 8.8 8.8 0 0 0 -253 -310.7 A 11.2 11.2 0 0 0 -250 -311.1 A 13.5 13.5 0 0 0 -248.8 -311.5 A 14.7 14.7 0 0 0 -245.7 -313 A 17.5 17.5 0 0 0 -244.7 -313.8 Z M 27 -427.3 L 72.4 -422.4 L 63.3 -412.9 L 49 -414.4 L 45.8 -384.9 L 33.5 -386.2 L 36.7 -415.8 L 17.9 -417.8 L 27 -427.3 Z M 213.8 -370.9 A 69.5 69.5 0 0 0 207.3 -374.9 Q 194.4 -382 185.6 -381.2 A 15.9 15.9 0 0 0 175.2 -376 A 24.8 24.8 0 0 0 171.6 -371 A 25.9 25.9 0 0 0 169.5 -366 A 16.1 16.1 0 0 0 170.3 -353.7 A 19.5 19.5 0 0 0 170.9 -352.6 Q 173.9 -347.5 180.7 -342.7 A 70.3 70.3 0 0 0 187.2 -338.6 A 84.1 84.1 0 0 0 188.3 -338 Q 195.9 -334 202.1 -332.8 A 24 24 0 0 0 208.9 -332.3 A 15.9 15.9 0 0 0 219.3 -337.5 A 25 25 0 0 0 223 -342.6 A 25.8 25.8 0 0 0 225 -347.2 A 16.1 16.1 0 0 0 224.1 -359.9 A 19.8 19.8 0 0 0 223.7 -360.7 Q 220.7 -366 213.8 -370.9 Z M -77.6 -421 A 69.5 69.5 0 0 0 -85.2 -419.8 A 84.1 84.1 0 0 0 -86.4 -419.6 Q -99.9 -416.7 -105.8 -410.6 A 15.9 15.9 0 0 0 -110.4 -399.9 A 24.8 24.8 0 0 0 -109.8 -393.7 A 25.9 25.9 0 0 0 -108.3 -388.5 A 16.1 16.1 0 0 0 -99.6 -379.7 A 19.5 19.5 0 0 0 -98.5 -379.3 Q -90.5 -376.5 -77 -379.2 A 84.1 84.1 0 0 0 -75.8 -379.5 Q -62.3 -382.4 -56.4 -388.5 A 15.9 15.9 0 0 0 -51.8 -399.2 A 25 25 0 0 0 -52.3 -405.4 A 25.8 25.8 0 0 0 -53.8 -410.2 A 16.1 16.1 0 0 0 -62.7 -419.3 A 19.8 19.8 0 0 0 -63.5 -419.7 Q -69.2 -421.7 -77.6 -421 Z M -201.3 -377.8 A 69.5 69.5 0 0 0 -208.2 -374.4 A 84.1 84.1 0 0 0 -209.3 -373.8 Q -221.2 -366.9 -225 -359.3 A 15.9 15.9 0 0 0 -226.2 -347.8 A 24.8 24.8 0 0 0 -223.8 -342.1 A 25.9 25.9 0 0 0 -220.7 -337.6 A 16.1 16.1 0 0 0 -209.7 -331.8 A 19.5 19.5 0 0 0 -208.6 -331.7 Q -202.7 -331.5 -195 -334.8 A 70.3 70.3 0 0 0 -188.1 -338.2 A 84.1 84.1 0 0 0 -187 -338.8 Q -175 -345.6 -171.2 -353.2 A 15.9 15.9 0 0 0 -170.1 -364.8 A 25 25 0 0 0 -172.5 -370.6 A 25.8 25.8 0 0 0 -175.4 -374.8 A 16.1 16.1 0 0 0 -186.6 -380.7 A 19.8 19.8 0 0 0 -187.5 -380.8 Q -193.5 -381 -201.3 -377.8 Z M -79 -389.4 A 93.9 93.9 0 0 0 -75.8 -390.2 Q -74.3 -390.5 -72.9 -390.9 A 44.2 44.2 0 0 0 -71.4 -391.4 A 19.7 19.7 0 0 0 -69.3 -392.2 Q -67.6 -393 -66.5 -393.9 Q -64.8 -395.5 -64.3 -397.6 A 9.1 9.1 0 0 0 -64.1 -399.5 Q -64.1 -400.4 -64.2 -401.4 A 20.3 20.3 0 0 0 -64.5 -402.9 A 19.1 19.1 0 0 0 -65 -405 Q -65.3 -405.9 -65.7 -406.8 A 8.6 8.6 0 0 0 -66.4 -407.9 A 6.6 6.6 0 0 0 -69.8 -410.4 A 10.6 10.6 0 0 0 -71.8 -410.8 Q -72.8 -410.9 -73.9 -410.9 A 22 22 0 0 0 -75.3 -410.8 Q -77.5 -410.6 -80.4 -410.1 A 96.9 96.9 0 0 0 -83.1 -409.6 A 93.9 93.9 0 0 0 -86.4 -408.9 Q -87.9 -408.5 -89.2 -408.1 A 44.2 44.2 0 0 0 -90.8 -407.7 A 20.4 20.4 0 0 0 -92.9 -406.9 Q -93.9 -406.4 -94.7 -405.9 A 9.8 9.8 0 0 0 -95.7 -405.1 A 6.6 6.6 0 0 0 -97.9 -401.5 A 9.1 9.1 0 0 0 -98.1 -399.6 Q -98.1 -398.7 -98 -397.7 A 20.3 20.3 0 0 0 -97.7 -396.2 A 19.1 19.1 0 0 0 -97.2 -394.2 Q -96.9 -393.2 -96.5 -392.4 A 8.6 8.6 0 0 0 -95.8 -391.2 A 6.7 6.7 0 0 0 -92.3 -388.7 A 10.3 10.3 0 0 0 -90.4 -388.3 Q -89.4 -388.2 -88.3 -388.2 A 21.3 21.3 0 0 0 -86.9 -388.2 Q -84.6 -388.4 -81.8 -388.9 A 96.9 96.9 0 0 0 -79 -389.4 Z M 197.9 -344.9 A 44.2 44.2 0 0 0 199.4 -344.3 A 19.7 19.7 0 0 0 201.5 -343.5 Q 202.6 -343.2 203.6 -343.1 A 9.5 9.5 0 0 0 204.7 -343.1 A 6.7 6.7 0 0 0 208.8 -344.4 A 9.1 9.1 0 0 0 210.2 -345.7 Q 210.8 -346.4 211.4 -347.3 A 20.3 20.3 0 0 0 212.1 -348.6 A 19.1 19.1 0 0 0 213.1 -350.4 Q 213.5 -351.4 213.7 -352.3 A 8.6 8.6 0 0 0 213.9 -353.6 A 6.6 6.6 0 0 0 212.9 -357.7 A 10.6 10.6 0 0 0 211.6 -359.3 Q 210.6 -360.5 209 -361.6 A 47.9 47.9 0 0 0 206.8 -363.1 Q 205.8 -363.7 204.7 -364.4 A 96.9 96.9 0 0 0 202.2 -365.8 Q 199.1 -367.5 196.6 -368.6 A 44.2 44.2 0 0 0 195.1 -369.3 A 20.4 20.4 0 0 0 193 -370 Q 191.3 -370.5 189.8 -370.5 Q 187.5 -370.5 185.7 -369.2 A 9.1 9.1 0 0 0 184.4 -367.9 Q 183.8 -367.2 183.2 -366.3 A 20.3 20.3 0 0 0 182.4 -365 A 19.1 19.1 0 0 0 181.5 -363.1 Q 181.1 -362.2 180.9 -361.3 A 8.6 8.6 0 0 0 180.7 -360 A 6.7 6.7 0 0 0 181.7 -355.8 A 10.3 10.3 0 0 0 182.9 -354.2 Q 183.6 -353.5 184.4 -352.8 A 21.3 21.3 0 0 0 185.5 -351.9 A 47.9 47.9 0 0 0 187.7 -350.5 Q 188.7 -349.8 189.9 -349.1 A 96.9 96.9 0 0 0 192.3 -347.8 Q 195.4 -346 197.9 -344.9 Z M -193.1 -347.3 A 93.9 93.9 0 0 0 -190.3 -348.9 Q -188 -350.3 -186.4 -351.5 A 19.7 19.7 0 0 0 -184.7 -352.9 Q -183.8 -353.7 -183.2 -354.4 A 9.5 9.5 0 0 0 -182.6 -355.4 Q -181.4 -357.3 -181.5 -359.5 A 9.1 9.1 0 0 0 -181.9 -361.4 Q -182.2 -362.3 -182.6 -363.2 A 20.3 20.3 0 0 0 -183.3 -364.6 A 19.1 19.1 0 0 0 -184.4 -366.3 Q -185 -367.2 -185.6 -367.8 A 8.6 8.6 0 0 0 -186.6 -368.7 Q -188.4 -370 -190.7 -370 A 10.6 10.6 0 0 0 -192.7 -369.8 Q -194.2 -369.5 -196 -368.8 A 47.9 47.9 0 0 0 -198.4 -367.7 Q -199.5 -367.2 -200.7 -366.6 A 96.9 96.9 0 0 0 -203.1 -365.3 A 93.9 93.9 0 0 0 -206 -363.6 Q -208.2 -362.3 -209.9 -361.1 A 20.4 20.4 0 0 0 -211.6 -359.7 Q -212.4 -359 -213 -358.2 A 9.8 9.8 0 0 0 -213.7 -357.2 A 6.6 6.6 0 0 0 -214.8 -353.1 A 9.1 9.1 0 0 0 -214.4 -351.2 Q -214.1 -350.4 -213.7 -349.4 A 20.3 20.3 0 0 0 -213 -348.1 A 19.1 19.1 0 0 0 -211.9 -346.3 Q -211.3 -345.4 -210.6 -344.8 A 8.6 8.6 0 0 0 -209.6 -343.9 A 6.7 6.7 0 0 0 -205.6 -342.6 A 10.3 10.3 0 0 0 -203.6 -342.8 Q -202.6 -342.9 -201.6 -343.3 A 21.3 21.3 0 0 0 -200.2 -343.8 A 47.9 47.9 0 0 0 -197.8 -344.9 Q -196.8 -345.4 -195.6 -346 A 96.9 96.9 0 0 0 -193.1 -347.3 Z
    " />
    <path id="textlower" fill="#ffffff" fill-rule="evenodd" d="
    M -352 -199 L -362.3 -179.8 A 31.9 31.9 0 0 1 -364.5 -176.2 Q -365.7 -174.5 -367 -173.3 A 12.6 12.6 0 0 1 -370 -171.2 A 8.9 8.9 0 0 1 -377.1 -170.8 A 13.6 13.6 0 0 1 -379.1 -171.7 A 16.8 16.8 0 0 1 -381.7 -173.4 A 13.5 13.5 0 0 1 -383.5 -175.1 Q -385.2 -177.1 -385.7 -179.8 A 12.5 12.5 0 0 1 -385.9 -182.7 Q -385.8 -184 -385.5 -185.4 A 21.3 21.3 0 0 1 -385.5 -185.7 A 23.1 23.1 0 0 1 -384.5 -188.7 Q -384 -190.2 -383.2 -191.9 A 43.4 43.4 0 0 1 -382.6 -193 L -365 -226 L -359.6 -214.1 L -373.9 -187.3 A 11.4 11.4 0 0 0 -374.4 -186.3 Q -374.8 -185.3 -374.9 -184.5 A 2.7 2.7 0 0 0 -374.8 -184.1 A 2.2 2.2 0 0 0 -374.1 -182.7 Q -373.8 -182.4 -373.4 -182.2 A 4.7 4.7 0 0 0 -373.3 -182.2 A 3.7 3.7 0 0 0 -372.6 -181.9 Q -371.7 -181.6 -370.9 -182 A 3.3 3.3 0 0 0 -370.2 -182.6 Q -369.6 -183.2 -369 -184.2 A 13.8 13.8 0 0 0 -368.8 -184.6 L -358.5 -203.9 A 30.5 30.5 0 0 1 -357 -206.4 Q -356.1 -207.7 -355.2 -208.7 A 16.6 16.6 0 0 1 -354.6 -209.4 A 16.2 16.2 0 0 1 -352.7 -211 A 11.7 11.7 0 0 1 -350.3 -212.4 Q -348.1 -213.3 -345.8 -213.1 A 11.5 11.5 0 0 1 -342.4 -212.2 A 13.9 13.9 0 0 1 -341.2 -211.7 A 13.9 13.9 0 0 1 -338.6 -209.9 A 11.8 11.8 0 0 1 -337.2 -208.4 Q -335.6 -206.4 -335.2 -203.9 A 12.4 12.4 0 0 1 -335 -201.1 Q -335.1 -199.9 -335.3 -198.6 A 21.8 21.8 0 0 1 -335.5 -198 Q -336.1 -195.1 -337.7 -191.8 A 43.4 43.4 0 0 1 -338.3 -190.6 L -354.8 -159.9 L -360.2 -171.8 L -347.1 -196.4 A 12.4 12.4 0 0 0 -346.6 -197.4 Q -346.2 -198.5 -346.1 -199.2 A 3 3 0 0 0 -346.1 -199.5 A 2 2 0 0 0 -346.8 -200.9 Q -347.1 -201.2 -347.4 -201.4 A 4.5 4.5 0 0 0 -347.5 -201.5 A 3.6 3.6 0 0 0 -348.3 -201.8 Q -349.2 -202 -350 -201.6 A 3.6 3.6 0 0 0 -350.7 -201 Q -351.3 -200.4 -351.8 -199.4 A 13.8 13.8 0 0 0 -352 -199 Z M -61 399.8 L -39.4 402.5 A 31.9 31.9 0 0 1 -35.3 403.3 Q -33.3 403.9 -31.7 404.6 A 12.6 12.6 0 0 1 -28.6 406.7 Q -25.1 409.9 -25.8 415.4 A 16.8 16.8 0 0 1 -26.5 418.4 A 13.5 13.5 0 0 1 -27.5 420.7 A 9.8 9.8 0 0 1 -31.1 424.4 A 12.5 12.5 0 0 1 -33.7 425.6 Q -35 426 -36.4 426.3 A 21.3 21.3 0 0 1 -36.7 426.3 Q -39.6 426.7 -43.3 426.3 A 43.4 43.4 0 0 1 -44.6 426.2 L -81.7 421.4 L -72.4 412.2 L -42.3 416.1 A 11.4 11.4 0 0 0 -41.2 416.2 Q -40.1 416.2 -39.3 415.9 A 2.7 2.7 0 0 0 -39 415.8 A 2.2 2.2 0 0 0 -37.9 414.6 Q -37.8 414.2 -37.7 413.8 A 4.7 4.7 0 0 0 -37.7 413.7 A 3.7 3.7 0 0 0 -37.7 412.9 Q -37.8 411.9 -38.5 411.4 A 3.3 3.3 0 0 0 -39.2 410.9 Q -40 410.6 -41.2 410.4 A 13.8 13.8 0 0 0 -41.6 410.3 L -63.3 407.5 A 30.5 30.5 0 0 1 -66.2 407 Q -67.7 406.7 -69 406.2 A 16.6 16.6 0 0 1 -69.8 405.8 A 16.2 16.2 0 0 1 -72 404.6 A 11.7 11.7 0 0 1 -74.2 402.9 A 9.2 9.2 0 0 1 -76.4 399 A 11.5 11.5 0 0 1 -76.8 395.4 A 13.9 13.9 0 0 1 -76.7 394.2 A 13.9 13.9 0 0 1 -76 391.1 A 11.8 11.8 0 0 1 -75.1 389.2 A 9.9 9.9 0 0 1 -71.5 385.7 A 12.4 12.4 0 0 1 -69.1 384.6 Q -67.9 384.2 -66.6 384 A 21.8 21.8 0 0 1 -65.9 383.9 Q -63.1 383.5 -59.4 383.8 A 43.4 43.4 0 0 1 -58.1 384 L -23.5 388.4 L -32.7 397.8 L -60.3 394.2 Q -62.2 394 -63.3 394.3 A 3 3 0 0 0 -63.6 394.4 A 2 2 0 0 0 -64.7 395.5 Q -64.8 395.9 -64.9 396.3 A 4.5 4.5 0 0 0 -64.9 396.4 A 3.6 3.6 0 0 0 -64.9 397.2 Q -64.9 397.8 -64.6 398.2 A 2 2 0 0 0 -64.1 398.7 A 3.6 3.6 0 0 0 -63.4 399.2 Q -62.6 399.5 -61.4 399.7 A 13.8 13.8 0 0 0 -61 399.8 Z M 403.7 84 L 396.3 75 L 401 49.8 L 425.7 54.4 L 420.6 81.5 A 30.6 30.6 0 0 1 418.7 87.7 A 26.4 26.4 0 0 1 417.3 90.7 A 25.5 25.5 0 0 1 414 95.2 A 21.8 21.8 0 0 1 411.6 97.4 A 19.9 19.9 0 0 1 404.3 101.2 Q 400.3 102.3 396 101.5 A 18.2 18.2 0 0 1 390.6 99.6 A 16.6 16.6 0 0 1 388.5 98.2 A 19 19 0 0 1 383.3 92.1 A 21.9 21.9 0 0 1 381.2 86.3 A 26.7 26.7 0 0 1 380.7 83.8 A 30.3 30.3 0 0 1 380.7 76.9 A 36.4 36.4 0 0 1 381.1 74.1 L 386.5 45.8 L 395.2 55.7 L 391.4 76 A 15.5 15.5 0 0 0 391.1 79.2 A 13.4 13.4 0 0 0 391.2 80.7 A 12.1 12.1 0 0 0 391.9 83.5 A 10.6 10.6 0 0 0 392.6 84.8 A 9.7 9.7 0 0 0 395.1 87.8 A 8.4 8.4 0 0 0 398.2 89.3 A 10 10 0 0 0 398.8 89.4 A 9.3 9.3 0 0 0 401.4 89.6 A 8.2 8.2 0 0 0 402.8 89.3 A 8.8 8.8 0 0 0 406.3 87.4 A 11.2 11.2 0 0 0 408.3 85.1 A 13.5 13.5 0 0 0 408.9 84.1 A 14.5 14.5 0 0 0 410.1 81.2 A 17.8 17.8 0 0 0 410.4 79.6 L 413.3 64.7 L 407.5 63.6 L 403.7 84 Z M 216.8 350.7 L 218.2 339.2 L 239.8 325.3 L 253.4 346.3 L 230.3 361.3 A 30.6 30.6 0 0 1 224.5 364.2 A 26.4 26.4 0 0 1 221.3 365.2 A 25.5 25.5 0 0 1 215.8 365.9 A 21.8 21.8 0 0 1 212.5 365.7 A 19.9 19.9 0 0 1 204.8 363 A 18.3 18.3 0 0 1 198.8 357.2 A 18.2 18.2 0 0 1 196.5 351.9 A 16.6 16.6 0 0 1 196 349.5 Q 195.6 345.4 196.9 341.5 A 21.9 21.9 0 0 1 199.6 336 A 26.7 26.7 0 0 1 201.1 334 A 30.3 30.3 0 0 1 206.1 329.2 A 36.4 36.4 0 0 1 208.5 327.5 L 232.7 312 L 231.6 325.1 L 214.2 336.3 A 15.5 15.5 0 0 0 211.7 338.3 A 13.4 13.4 0 0 0 210.6 339.4 A 12.1 12.1 0 0 0 209.1 341.9 A 10.6 10.6 0 0 0 208.6 343.2 Q 208 345.2 208.2 347.1 A 8.4 8.4 0 0 0 209.2 350.4 A 10 10 0 0 0 209.5 350.9 A 9.3 9.3 0 0 0 211.2 352.9 A 8.2 8.2 0 0 0 212.4 353.8 A 8.8 8.8 0 0 0 216.1 355 A 11.2 11.2 0 0 0 219.2 354.8 A 13.5 13.5 0 0 0 220.3 354.6 A 14.5 14.5 0 0 0 223.2 353.4 A 17.8 17.8 0 0 0 224.7 352.6 L 237.4 344.4 L 234.3 339.5 L 216.8 350.7 Z M -404.9 78.1 L -394.6 83.6 L -389.2 108.7 L -413.8 113.9 L -419.5 87 A 30.6 30.6 0 0 1 -420.2 80.5 A 26.4 26.4 0 0 1 -420 77.2 A 25.5 25.5 0 0 1 -418.7 71.8 A 21.8 21.8 0 0 1 -417.4 68.8 A 19.9 19.9 0 0 1 -412.1 62.5 A 18.3 18.3 0 0 1 -404.5 59 A 18.2 18.2 0 0 1 -398.8 58.7 A 16.6 16.6 0 0 1 -396.3 59.2 Q -392.4 60.2 -389.1 62.8 A 21.9 21.9 0 0 1 -385 67.3 A 26.7 26.7 0 0 1 -383.6 69.4 A 30.3 30.3 0 0 1 -380.9 75.8 A 36.4 36.4 0 0 1 -380.2 78.6 L -374.2 106.7 L -386.1 101 L -390.4 80.8 A 15.5 15.5 0 0 0 -391.4 77.8 A 13.4 13.4 0 0 0 -392.1 76.3 A 12.1 12.1 0 0 0 -393.8 74.1 A 10.6 10.6 0 0 0 -394.9 73.1 Q -396.5 71.8 -398.4 71.3 A 8.4 8.4 0 0 0 -401.9 71.1 A 10 10 0 0 0 -402.5 71.2 A 9.3 9.3 0 0 0 -404.9 72.1 A 8.2 8.2 0 0 0 -406.1 72.9 A 8.8 8.8 0 0 0 -408.6 76 A 11.2 11.2 0 0 0 -409.5 78.9 A 13.5 13.5 0 0 0 -409.7 80 A 14.5 14.5 0 0 0 -409.7 83.2 A 17.8 17.8 0 0 0 -409.4 84.8 L -406.2 99.7 L -400.5 98.4 L -404.9 78.1 Z M 264.6 323.9 L 290.5 301.6 L 291.2 314.6 L 261.9 339.8 L 235.7 309.4 L 270.9 279.1 L 271.6 292.2 L 251.9 309.2 L 255.1 312.8 L 279.2 292.1 L 279.7 303.7 L 261 319.7 L 264.6 323.9 Z M 396.3 -133.6 L 384.6 -165.6 L 397 -161.7 L 410.3 -125.4 L 372.6 -111.6 L 356.6 -155.2 L 369.2 -151.3 L 378.1 -126.9 L 382.6 -128.5 L 371.7 -158.4 L 382.7 -154.8 L 391.2 -131.7 L 396.3 -133.6 Z M -221.4 354.8 L -192 372.1 L -204.1 377 L -237.4 357.4 L -217 322.8 L -176.9 346.4 L -189.2 351.3 L -211.6 338.1 L -214 342.3 L -186.6 358.4 L -197.4 362.6 L -218.6 350.1 L -221.4 354.8 Z M 417.1 30.8 L 418.7 -3.3 L 428.6 5.2 L 426.8 43.8 L 386.7 41.9 L 388.9 -4.6 L 399 4 L 397.7 29.9 L 402.5 30.1 L 404 -1.6 L 412.8 6 L 411.6 30.6 L 417.1 30.8 Z M 361.2 -216.5 L 364.6 -226.7 L 372.4 -212 L 367.3 -199.1 L 376.3 -182.3 L 385.6 -187.3 L 391.5 -176.3 L 373.4 -166.7 L 356.9 -197.5 A 11.5 11.5 0 0 0 355.7 -199.3 Q 354.8 -200.4 353.7 -201.1 A 7.2 7.2 0 0 0 353.6 -201.2 A 4.7 4.7 0 0 0 352.3 -201.8 A 3.5 3.5 0 0 0 349.7 -201.4 A 4.8 4.8 0 0 0 348.5 -200.5 A 3.7 3.7 0 0 0 347.5 -198.2 A 6.4 6.4 0 0 0 347.6 -196.3 Q 347.8 -195.5 348.2 -194.6 A 15.1 15.1 0 0 0 348.8 -193.2 L 365.3 -162.4 L 352.2 -164.6 L 340.1 -187.4 A 40.8 40.8 0 0 1 337.8 -192.6 A 46.3 46.3 0 0 1 337.3 -193.9 A 22.4 22.4 0 0 1 336.3 -198.9 A 20 20 0 0 1 336.2 -200.8 A 14.3 14.3 0 0 1 337.7 -207.3 A 10.2 10.2 0 0 1 340.1 -210.3 Q 341.2 -211.3 342.6 -212.1 A 18.6 18.6 0 0 1 343 -212.3 A 13.6 13.6 0 0 1 347.2 -213.8 A 13 13 0 0 1 347.3 -213.8 A 12.4 12.4 0 0 1 351.6 -213.7 Q 353.7 -213.3 355.7 -212.2 A 13.1 13.1 0 0 1 358.5 -209.9 A 15.5 15.5 0 0 1 359.2 -209 A 21.2 21.2 0 0 1 359.4 -210.1 Q 359.6 -210.9 359.9 -212 A 107.6 107.6 0 0 1 360.1 -212.9 Q 360.4 -213.9 360.8 -215.2 A 357.9 357.9 0 0 1 361.2 -216.5 Z M 329.9 261.8 L 340.6 261.4 L 329.6 273.9 L 315.7 273.6 L 303.1 287.9 L 311.1 294.9 L 302.9 304.3 L 287.5 290.7 L 310.6 264.5 A 11.5 11.5 0 0 0 311.9 262.7 Q 312.6 261.5 312.8 260.2 A 7.2 7.2 0 0 0 312.9 260 A 4.7 4.7 0 0 0 312.9 258.6 A 3.5 3.5 0 0 0 311.7 256.4 A 4.8 4.8 0 0 0 310.5 255.6 A 3.7 3.7 0 0 0 307.9 255.4 A 6.4 6.4 0 0 0 306.2 256.2 Q 305.5 256.6 304.8 257.3 A 15.1 15.1 0 0 0 303.7 258.4 L 280.6 284.7 L 278.1 271.7 L 295.2 252.3 A 40.8 40.8 0 0 1 299.2 248.3 A 46.3 46.3 0 0 1 300.3 247.4 A 22.4 22.4 0 0 1 304.6 244.6 A 20 20 0 0 1 306.4 243.9 A 14.3 14.3 0 0 1 313 243.1 A 10.2 10.2 0 0 1 316.6 244.2 Q 317.9 244.9 319.2 246 A 18.6 18.6 0 0 1 319.6 246.3 A 13.6 13.6 0 0 1 322.4 249.7 A 13 13 0 0 1 322.4 249.7 A 12.4 12.4 0 0 1 323.9 253.8 Q 324.3 255.9 323.8 258.1 A 13.1 13.1 0 0 1 322.7 261.6 A 15.5 15.5 0 0 1 322.2 262.6 A 21.2 21.2 0 0 1 323.2 262.4 Q 323.7 262.3 324.4 262.2 A 39.7 39.7 0 0 1 325.2 262.1 A 107.6 107.6 0 0 1 326.1 262.1 Q 327.2 262 328.5 261.9 A 357.9 357.9 0 0 1 329.9 261.8 Z M 78.9 413.7 L 87.2 420.4 L 70.8 422.7 L 60.5 413.4 L 41.6 416 L 43 426.5 L 30.7 428.2 L 27.9 407.9 L 62.5 403.1 A 11.5 11.5 0 0 0 64.6 402.6 Q 66 402.2 67 401.4 A 7.2 7.2 0 0 0 67.1 401.3 A 4.7 4.7 0 0 0 68.1 400.2 A 3.5 3.5 0 0 0 68.6 397.7 A 4.8 4.8 0 0 0 68.2 396.3 A 3.7 3.7 0 0 0 66.4 394.5 A 6.4 6.4 0 0 0 64.6 394 Q 63.8 393.9 62.8 393.9 A 15.1 15.1 0 0 0 61.2 394 L 26.6 398.8 L 33.2 387.4 L 58.8 383.8 A 40.8 40.8 0 0 1 64.5 383.4 A 46.3 46.3 0 0 1 65.9 383.5 A 22.4 22.4 0 0 1 70.9 384.2 A 20 20 0 0 1 72.8 384.8 A 14.3 14.3 0 0 1 78.3 388.4 Q 80.5 390.8 81.1 394.7 A 18.6 18.6 0 0 1 81.2 395.2 A 13.6 13.6 0 0 1 81.1 399.6 A 13 13 0 0 1 81.1 399.7 A 12.4 12.4 0 0 1 79.6 403.7 Q 78.5 405.6 76.7 407 A 13.1 13.1 0 0 1 73.6 408.8 A 15.5 15.5 0 0 1 72.5 409.2 A 21.2 21.2 0 0 1 73.4 409.8 Q 73.9 410.1 74.4 410.4 A 39.7 39.7 0 0 1 75.1 410.9 A 107.6 107.6 0 0 1 75.8 411.4 Q 76.7 412.1 77.8 412.9 A 357.9 357.9 0 0 1 78.9 413.7 Z M -414.7 -73.2 L -424 -67.7 L -420.3 -83.9 L -407.9 -90.3 L -403.7 -108.9 L -414 -111.2 L -411.2 -123.4 L -391.2 -118.8 L -399 -84.7 A 11.5 11.5 0 0 0 -399.3 -82.6 Q -399.4 -81.1 -399 -79.9 A 7.2 7.2 0 0 0 -398.9 -79.7 A 4.7 4.7 0 0 0 -398.3 -78.5 A 3.5 3.5 0 0 0 -396.2 -77.1 A 4.8 4.8 0 0 0 -394.7 -76.9 A 3.7 3.7 0 0 0 -392.3 -78 A 6.4 6.4 0 0 0 -391.2 -79.5 Q -390.8 -80.3 -390.5 -81.2 A 15.1 15.1 0 0 0 -390.1 -82.7 L -382.3 -116.7 L -373.9 -106.5 L -379.7 -81.4 A 40.8 40.8 0 0 1 -381.4 -75.9 A 46.3 46.3 0 0 1 -381.9 -74.6 A 22.4 22.4 0 0 1 -384.4 -70.1 A 20 20 0 0 1 -385.6 -68.6 Q -387.8 -66 -390.9 -64.8 A 10.2 10.2 0 0 1 -394.7 -64 Q -396.2 -64 -397.8 -64.3 A 18.6 18.6 0 0 1 -398.3 -64.4 A 13.6 13.6 0 0 1 -402.4 -66.1 A 13 13 0 0 1 -402.4 -66.1 A 12.4 12.4 0 0 1 -405.7 -69 A 12.3 12.3 0 0 1 -407.7 -72.8 A 13.8 13.8 0 0 1 -407.7 -72.8 Q -408.4 -75 -408.3 -77.5 A 21.2 21.2 0 0 1 -409.1 -76.9 Q -409.6 -76.5 -410.1 -76.2 A 39.7 39.7 0 0 1 -410.8 -75.7 A 107.6 107.6 0 0 1 -411.5 -75.2 Q -412.4 -74.6 -413.6 -73.9 A 357.9 357.9 0 0 1 -414.7 -73.2 Z M -364.8 227.1 L -386.3 185.7 L -373.7 187.6 L -369 196.5 L -367.3 199.8 Q -366.4 201.6 -365.9 202.9 A 34.9 34.9 0 0 1 -365.4 201.9 Q -365.1 201.5 -364.9 201 A 72.2 72.2 0 0 1 -364.3 199.9 A 170.6 170.6 0 0 0 -363.4 198.2 A 142.6 142.6 0 0 0 -362.6 196.6 L -356.5 185.3 L -388.8 180.9 L -395.6 167.8 L -351.5 173.9 A 13.4 13.4 0 0 1 -348.2 174.9 A 15.8 15.8 0 0 1 -347.3 175.3 A 7.1 7.1 0 0 1 -345 177.1 Q -344.4 177.9 -343.8 178.9 A 12.4 12.4 0 0 1 -343.8 179 A 10.2 10.2 0 0 1 -343 181 A 7.2 7.2 0 0 1 -342.8 183.8 A 12.2 12.2 0 0 1 -344.1 188.1 L -364.8 227.1 Z M 374.2 -106.2 L 413.5 -114.7 L 416.1 -102.6 L 401 -99.4 L 406 -76 L 421.2 -79.3 L 423.8 -67.1 L 384.6 -58.6 L 381.9 -70.8 L 395.8 -73.8 L 390.8 -97.1 L 376.9 -94.1 L 374.2 -106.2 Z M -425 41.8 L -404.7 15.8 L -428.2 17.4 L -429 6.1 L -395.8 3.8 A 11.6 11.6 0 0 1 -394.2 3.8 Q -393.3 3.9 -392.6 4.1 A 6.8 6.8 0 0 1 -392.3 4.2 A 7.7 7.7 0 0 1 -391.1 4.7 A 5.8 5.8 0 0 1 -389.9 5.5 A 5.7 5.7 0 0 1 -388.4 7.5 Q -387.9 8.7 -387.8 10.1 A 7.1 7.1 0 0 1 -388 12 A 8.2 8.2 0 0 1 -388.1 12.4 A 4.8 4.8 0 0 1 -388.4 13.3 Q -388.8 14.1 -389.5 15 A 16 16 0 0 1 -389.7 15.2 L -410 41.3 L -386.4 39.6 L -385.6 50.9 L -418.8 53.2 A 11.6 11.6 0 0 1 -420.4 53.3 Q -421.3 53.2 -422 53 A 6.8 6.8 0 0 1 -422.3 52.9 A 7.8 7.8 0 0 1 -423.6 52.4 A 6.1 6.1 0 0 1 -424.7 51.6 A 5.5 5.5 0 0 1 -426.2 49.5 A 8.1 8.1 0 0 1 -426.8 47 A 7.5 7.5 0 0 1 -426.6 44.6 A 4.6 4.6 0 0 1 -426.3 43.7 Q -425.9 42.9 -425.1 41.9 A 14.9 14.9 0 0 1 -425 41.8 Z M -254.6 342.8 L -260.3 310.3 L -274.9 328.8 L -283.8 321.8 L -263.2 295.7 A 11.6 11.6 0 0 1 -262.1 294.5 Q -261.5 293.9 -260.8 293.5 A 6.8 6.8 0 0 1 -260.6 293.3 A 7.7 7.7 0 0 1 -259.4 292.7 A 5.8 5.8 0 0 1 -258 292.4 Q -256.7 292.3 -255.5 292.7 A 7.8 7.8 0 0 1 -253.2 294 A 7.1 7.1 0 0 1 -251.8 295.4 A 8.2 8.2 0 0 1 -251.6 295.7 A 4.8 4.8 0 0 1 -251.2 296.5 Q -250.9 297.4 -250.6 298.6 A 16 16 0 0 1 -250.6 298.7 L -244.9 331.3 L -230.4 312.8 L -221.5 319.8 L -242 345.9 A 11.6 11.6 0 0 1 -243.1 347.1 Q -243.7 347.7 -244.3 348.1 A 6.8 6.8 0 0 1 -244.6 348.3 A 7.8 7.8 0 0 1 -245.9 348.9 A 6.1 6.1 0 0 1 -247.2 349.2 Q -248.5 349.3 -249.8 348.9 A 8.1 8.1 0 0 1 -252.1 347.6 Q -253 346.9 -253.7 345.9 A 4.6 4.6 0 0 1 -254.1 345 Q -254.5 344.2 -254.6 342.9 A 14.9 14.9 0 0 1 -254.6 342.8 Z M 190 382.5 L 158.4 372.7 L 168.3 394.1 L 158.1 398.9 L 144.1 368.6 A 11.6 11.6 0 0 1 143.6 367.1 Q 143.3 366.3 143.2 365.6 A 6.8 6.8 0 0 1 143.2 365.3 A 7.7 7.7 0 0 1 143.3 363.9 A 5.8 5.8 0 0 1 143.6 362.5 Q 144.1 361.3 145 360.4 A 7.8 7.8 0 0 1 147.1 359 A 7.1 7.1 0 0 1 149 358.4 A 8.2 8.2 0 0 1 149.4 358.4 A 4.8 4.8 0 0 1 150.3 358.4 Q 151.3 358.5 152.6 358.9 L 184.2 368.6 L 174.3 347.2 L 184.6 342.4 L 198.5 372.6 A 11.6 11.6 0 0 1 199.1 374.1 Q 199.3 374.9 199.4 375.7 A 6.8 6.8 0 0 1 199.4 375.9 A 7.8 7.8 0 0 1 199.4 377.4 A 6.1 6.1 0 0 1 199.1 378.7 Q 198.6 380 197.6 380.9 Q 196.7 381.8 195.5 382.3 A 7.5 7.5 0 0 1 193.2 383 A 4.6 4.6 0 0 1 192.2 383 Q 191.3 382.9 190.1 382.5 A 14.9 14.9 0 0 1 190 382.5 Z M -18.1 388.3 L 27.5 388.2 L 19.5 398.7 L 5.2 398.7 L 5.2 428.4 L -7.2 428.4 L -7.3 398.7 L -26.1 398.7 L -18.1 388.3 Z M 388.5 -11.4 L 385 -56.8 L 396 -49.6 L 397.2 -35.3 L 426.8 -37.6 L 427.7 -25.2 L 398.1 -22.9 L 399.6 -4.2 L 388.5 -11.4 Z M -356.6 -154.8 L -372.7 -112.1 L -379.6 -123.4 L -374.5 -136.8 L -402.3 -147.3 L -397.9 -158.9 L -370.1 -148.4 L -363.5 -166 L -356.6 -154.8 Z M 338 192 L 358.6 151.3 L 364.3 163.2 L 357.8 176 L 384.3 189.4 L 378.7 200.5 L 352.2 187.1 L 343.7 203.9 L 338 192 Z M -276.8 271.9 A 69.5 69.5 0 0 0 -281.8 266.1 Q -288.3 259.3 -294.2 256 A 24 24 0 0 0 -300.6 253.5 A 15.9 15.9 0 0 0 -312 255.3 A 24.8 24.8 0 0 0 -317 259 A 25.9 25.9 0 0 0 -320.6 263.1 A 16.1 16.1 0 0 0 -323.5 275.1 A 19.5 19.5 0 0 0 -323.3 276.3 Q -322 282.1 -317 288.7 A 70.3 70.3 0 0 0 -312 294.6 Q -305.5 301.4 -299.6 304.7 A 24 24 0 0 0 -293.2 307.2 A 15.9 15.9 0 0 0 -281.7 305.4 A 25 25 0 0 0 -276.7 301.7 A 25.8 25.8 0 0 0 -273.4 297.8 A 16.1 16.1 0 0 0 -270.3 285.5 A 19.8 19.8 0 0 0 -270.5 284.6 Q -271.8 278.7 -276.8 271.9 Z M -387.4 -22.3 A 69.5 69.5 0 0 0 -386.4 -29.9 A 84.1 84.1 0 0 0 -386.4 -31.1 Q -385.8 -39.7 -387.3 -45.8 A 24 24 0 0 0 -389.7 -52.2 A 15.9 15.9 0 0 0 -398.7 -59.5 A 24.8 24.8 0 0 0 -404.8 -60.7 A 25.9 25.9 0 0 0 -410.3 -60.6 A 16.1 16.1 0 0 0 -421.1 -54.7 A 19.5 19.5 0 0 0 -421.8 -53.7 Q -426.7 -46.8 -427.8 -33.1 A 84.1 84.1 0 0 0 -427.9 -31.9 Q -428.4 -23.2 -427 -17.1 A 24 24 0 0 0 -424.5 -10.7 A 15.9 15.9 0 0 0 -415.5 -3.4 A 25 25 0 0 0 -409.3 -2.2 Q -398.6 -1.4 -393.1 -8.3 A 19.8 19.8 0 0 0 -392.6 -9 Q -389 -13.9 -387.4 -22.3 Z M 116.8 370.1 A 69.5 69.5 0 0 0 109.3 371.9 A 84.1 84.1 0 0 0 108.2 372.2 Q 99.9 374.8 94.7 378.3 A 24 24 0 0 0 89.6 382.9 A 15.9 15.9 0 0 0 86 393.9 A 24.8 24.8 0 0 0 87 400 A 25.9 25.9 0 0 0 89 405 A 16.1 16.1 0 0 0 98.5 413.1 A 19.5 19.5 0 0 0 99.6 413.4 Q 105.3 414.9 113.5 413.4 A 70.3 70.3 0 0 0 121 411.6 A 84.1 84.1 0 0 0 122.2 411.3 Q 130.4 408.7 135.6 405.2 A 24 24 0 0 0 140.7 400.7 A 15.9 15.9 0 0 0 144.4 389.6 A 25 25 0 0 0 143.3 383.4 Q 140.3 373.1 131.8 370.4 A 19.8 19.8 0 0 0 131 370.2 Q 125.1 368.6 116.8 370.1 Z M 368.7 121 A 69.5 69.5 0 0 0 365.8 128.1 A 84.1 84.1 0 0 0 365.4 129.3 Q 361 142.4 363.2 150.6 A 15.9 15.9 0 0 0 370.1 160 A 24.8 24.8 0 0 0 375.6 162.7 A 25.9 25.9 0 0 0 380.9 163.9 A 16.1 16.1 0 0 0 392.9 161 A 19.5 19.5 0 0 0 393.9 160.3 Q 400.4 154.9 404.9 141.8 A 84.1 84.1 0 0 0 405.3 140.7 Q 409.7 127.6 407.5 119.4 A 15.9 15.9 0 0 0 400.6 110 A 25 25 0 0 0 395 107.3 Q 384.9 103.7 377.8 109 A 19.8 19.8 0 0 0 377.1 109.6 Q 372.4 113.4 368.7 121 Z M -344.1 237.7 L -325.9 262.8 L -338.9 262.4 L -359.7 233.7 L -327.2 210.1 L -319.9 220.2 L -344.1 237.7 Z M -304.4 287.4 A 93.9 93.9 0 0 0 -302.1 289.8 Q -300.9 290.9 -299.9 291.8 A 44.2 44.2 0 0 0 -298.7 292.9 A 19.7 19.7 0 0 0 -296.8 294.2 Q -295.3 295.2 -293.9 295.7 Q -291.7 296.3 -289.6 295.6 A 9.1 9.1 0 0 0 -287.9 294.8 Q -287.2 294.3 -286.3 293.7 A 20.3 20.3 0 0 0 -285.2 292.7 A 19.1 19.1 0 0 0 -283.8 291.2 Q -283.1 290.4 -282.6 289.6 A 8.6 8.6 0 0 0 -282 288.4 A 6.6 6.6 0 0 0 -281.7 284.1 A 10.6 10.6 0 0 0 -282.4 282.3 Q -282.9 281.4 -283.5 280.4 A 22 22 0 0 0 -284.3 279.3 A 47.9 47.9 0 0 0 -285.9 277.2 Q -286.6 276.3 -287.5 275.3 A 96.9 96.9 0 0 0 -289.4 273.3 A 93.9 93.9 0 0 0 -291.7 270.9 Q -292.9 269.8 -293.9 268.9 A 44.2 44.2 0 0 0 -295.1 267.8 A 20.4 20.4 0 0 0 -296.9 266.5 Q -297.8 265.9 -298.7 265.5 A 9.8 9.8 0 0 0 -299.8 265 A 6.6 6.6 0 0 0 -304.1 265 A 9.1 9.1 0 0 0 -305.8 265.8 Q -306.6 266.3 -307.4 267 A 20.3 20.3 0 0 0 -308.5 268 A 19.1 19.1 0 0 0 -310 269.5 Q -310.6 270.3 -311.1 271 A 8.6 8.6 0 0 0 -311.7 272.2 Q -312.6 274.3 -312 276.5 A 10.3 10.3 0 0 0 -311.3 278.4 Q -310.9 279.3 -310.3 280.2 A 21.3 21.3 0 0 0 -309.5 281.4 A 47.9 47.9 0 0 0 -307.9 283.5 Q -307.1 284.4 -306.3 285.4 A 96.9 96.9 0 0 0 -304.4 287.4 Z M -417.6 -26 A 44.2 44.2 0 0 0 -417.6 -24.3 A 19.7 19.7 0 0 0 -417.4 -22.1 Q -417.2 -21 -416.9 -20 A 9.5 9.5 0 0 0 -416.5 -19 A 6.7 6.7 0 0 0 -413.6 -15.8 A 9.1 9.1 0 0 0 -411.8 -15.1 Q -410.9 -14.9 -409.9 -14.7 A 20.3 20.3 0 0 0 -408.4 -14.5 A 19.1 19.1 0 0 0 -406.3 -14.5 Q -405.3 -14.5 -404.4 -14.7 A 8.6 8.6 0 0 0 -403.1 -15 Q -401 -15.8 -399.8 -17.7 A 10.6 10.6 0 0 0 -398.8 -19.4 Q -398.5 -20.4 -398.2 -21.4 A 22 22 0 0 0 -397.9 -22.8 Q -397.4 -25 -397.1 -27.9 A 96.9 96.9 0 0 0 -396.9 -30.7 Q -396.6 -34.2 -396.6 -36.9 A 44.2 44.2 0 0 0 -396.6 -38.6 A 20.4 20.4 0 0 0 -396.8 -40.8 Q -397.1 -42.6 -397.7 -43.9 A 6.6 6.6 0 0 0 -400.6 -47.1 A 9.1 9.1 0 0 0 -402.4 -47.8 Q -403.2 -48.1 -404.3 -48.2 A 20.3 20.3 0 0 0 -405.8 -48.4 A 19.1 19.1 0 0 0 -407.9 -48.4 Q -408.9 -48.4 -409.8 -48.2 A 8.6 8.6 0 0 0 -411.1 -47.9 Q -413.2 -47.1 -414.4 -45.2 A 10.3 10.3 0 0 0 -415.4 -43.5 Q -416 -42 -416.4 -40.1 A 47.9 47.9 0 0 0 -416.8 -37.5 Q -417 -36.3 -417.1 -35 A 96.9 96.9 0 0 0 -417.4 -32.2 Q -417.7 -28.7 -417.6 -26 Z M 118.1 401.6 A 93.9 93.9 0 0 0 121.2 400.6 Q 122.7 400.1 124 399.6 A 44.2 44.2 0 0 0 125.6 399 A 19.7 19.7 0 0 0 127.6 398 Q 129.1 397.1 130.2 396.1 A 6.7 6.7 0 0 0 132.1 392.2 A 9.1 9.1 0 0 0 132.1 390.3 Q 132 389.4 131.8 388.4 A 20.3 20.3 0 0 0 131.5 386.9 A 19.1 19.1 0 0 0 130.8 385 Q 130.4 384 129.9 383.2 A 8.6 8.6 0 0 0 129.1 382.2 Q 127.7 380.5 125.4 380 A 10.6 10.6 0 0 0 123.5 379.7 Q 122.5 379.7 121.4 379.8 A 22 22 0 0 0 120 380 A 47.9 47.9 0 0 0 117.4 380.5 Q 116.2 380.8 115 381.1 A 96.9 96.9 0 0 0 112.3 381.9 A 93.9 93.9 0 0 0 109.1 382.9 Q 106.7 383.7 104.8 384.5 Q 101.8 385.8 100.2 387.4 A 6.6 6.6 0 0 0 98.3 391.2 A 9.1 9.1 0 0 0 98.2 393.1 Q 98.3 394 98.5 395 A 20.3 20.3 0 0 0 98.9 396.5 A 19.1 19.1 0 0 0 99.6 398.5 Q 100 399.4 100.4 400.2 A 8.6 8.6 0 0 0 101.2 401.3 Q 102.6 403 104.9 403.5 A 10.3 10.3 0 0 0 106.9 403.7 Q 107.9 403.8 109 403.7 A 21.3 21.3 0 0 0 110.4 403.5 A 47.9 47.9 0 0 0 113 403 Q 114.1 402.7 115.4 402.4 A 96.9 96.9 0 0 0 118.1 401.6 Z M 395.1 138.4 A 93.9 93.9 0 0 0 396.1 135.2 Q 396.6 133.7 397 132.4 A 44.2 44.2 0 0 0 397.3 130.8 A 19.7 19.7 0 0 0 397.7 128.6 Q 397.8 127.4 397.8 126.5 A 9.5 9.5 0 0 0 397.6 125.3 A 6.7 6.7 0 0 0 395.6 121.5 A 9.1 9.1 0 0 0 394.1 120.4 Q 393.3 119.9 392.4 119.5 A 20.3 20.3 0 0 0 391 118.9 A 19.1 19.1 0 0 0 389 118.4 Q 387.9 118.1 387 118.1 A 8.6 8.6 0 0 0 385.7 118.1 Q 383.5 118.2 381.8 119.8 A 10.6 10.6 0 0 0 380.5 121.3 Q 379.5 122.5 378.6 124.2 A 47.9 47.9 0 0 0 377.6 126.6 Q 377.1 127.7 376.6 129 A 96.9 96.9 0 0 0 375.7 131.6 A 93.9 93.9 0 0 0 374.6 134.7 Q 374.1 136.2 373.8 137.6 A 44.2 44.2 0 0 0 373.4 139.2 A 20.4 20.4 0 0 0 373 141.4 Q 372.8 143.2 373.1 144.6 Q 373.5 146.9 375.1 148.4 A 9.1 9.1 0 0 0 376.6 149.5 Q 377.4 150 378.3 150.4 A 20.3 20.3 0 0 0 379.7 151 A 19.1 19.1 0 0 0 381.7 151.6 Q 382.8 151.8 383.7 151.9 A 8.6 8.6 0 0 0 385 151.9 A 6.7 6.7 0 0 0 388.9 150.2 A 10.3 10.3 0 0 0 390.3 148.7 Q 390.9 147.9 391.4 147 A 21.3 21.3 0 0 0 392.1 145.7 A 47.9 47.9 0 0 0 393.2 143.3 Q 393.7 142.2 394.1 141 A 96.9 96.9 0 0 0 395.1 138.4 Z M 315.2 -256.5 A 6.5 6.5 0 0 0 316.8 -257.5 A 7.1 7.1 0 0 0 317.3 -258 A 4.9 4.9 0 0 0 318.8 -261.7 A 7 7 0 0 0 318.2 -264.3 A 8.8 8.8 0 0 0 316.9 -266.3 A 9.7 9.7 0 0 0 315.8 -267.5 A 7.1 7.1 0 0 0 312.6 -269.1 A 4.8 4.8 0 0 0 309.7 -268.8 A 6.2 6.2 0 0 0 308.1 -267.8 A 7.3 7.3 0 0 0 307.4 -267.2 A 5 5 0 0 0 306 -263.5 A 6.9 6.9 0 0 0 306.7 -260.8 A 9 9 0 0 0 308 -258.9 A 9.4 9.4 0 0 0 308.8 -258 A 7.1 7.1 0 0 0 312.2 -256.2 A 4.9 4.9 0 0 0 315.2 -256.5 Z M -140.1 381.5 A 6.5 6.5 0 0 0 -141 383.1 A 7.1 7.1 0 0 0 -141.2 383.9 A 4.9 4.9 0 0 0 -140.5 387.8 A 7 7 0 0 0 -138.6 389.7 A 8.8 8.8 0 0 0 -136.5 390.8 A 9.7 9.7 0 0 0 -135 391.2 A 7.1 7.1 0 0 0 -131.5 391 A 4.8 4.8 0 0 0 -129 389.2 A 6.2 6.2 0 0 0 -128.2 387.6 A 7.3 7.3 0 0 0 -128 386.7 A 5 5 0 0 0 -128.6 382.8 A 6.9 6.9 0 0 0 -130.6 380.8 A 9 9 0 0 0 -132.7 379.8 A 9.4 9.4 0 0 0 -133.9 379.5 A 7.1 7.1 0 0 0 -137.7 379.7 A 4.9 4.9 0 0 0 -140.1 381.5 Z M -308.1 -267.8 Q -305.9 -266 -306 -263.5 A 7.1 7.1 0 0 1 -307.2 -259.9 A 9.4 9.4 0 0 1 -307.9 -258.9 A 9 9 0 0 1 -309.6 -257.3 A 6.9 6.9 0 0 1 -312.2 -256.2 A 5 5 0 0 1 -316 -256.9 A 7.3 7.3 0 0 1 -316.8 -257.5 A 6.2 6.2 0 0 1 -318 -258.9 A 4.8 4.8 0 0 1 -318.8 -261.7 A 7.1 7.1 0 0 1 -317.8 -265.1 A 9.7 9.7 0 0 1 -316.8 -266.4 A 8.8 8.8 0 0 1 -315.1 -268 A 7 7 0 0 1 -312.6 -269.1 A 4.9 4.9 0 0 1 -308.7 -268.3 A 7.1 7.1 0 0 1 -308.1 -267.8 Z
    " />
    

    <path id="planetoutline" fill="#ffffff" d="
      M -106 50
      a 106 106 0 0 1  212 0
      a 106 106 0 0 1 -212 0
      Z
    " />
    <path id="planet" fill="#0c2079" d="
      M -100 50
      a 100 100 0 0 1  200 0
      a 100 100 0 0 1 -200 0
      Z
    " />

    <path fill="#ffffff" stroke="#000000" stroke-width="5" d="
      M 45 -20
      A 600 600 0 0 1 56.25 -5
      A 400 400 0 0 0 25 2.5
      A 280 280 0 0 1 25 97.5
      A 400 400 0 0 0 56.25 105
      A 600 600 0 0 1 45 120
      A 400 400 0 0 0 -45 120
      A 600 600 0 0 1 -56.25 105
      A 400 400 0 0 0 -25 97.5
      A 280 280 0 0 1 -25 2.5
      A 400 400 0 0 0 -56.25 -5
      A 600 600 0 0 1 -45 -20
      A 400 400 0 0 0 45 -20
      Z
    " />

    <path id="sun" fill="#ffffff" d="
      M -45.31538935183249 -44.7
      A 50 50 0 0 1  45.31538935183249 -44.7
      A 105 105 0 0 0 -45.31538935183249 -44.7
      Z
    " />
    <use xlink:href="#star" x="-283.5" y="146" />

    <use xlink:href="#star" x="-220.5" y="125" />

    <use xlink:href="#star" x="-157.5" y="93.5" />

    <use xlink:href="#star" x="-231" y="177.5" />

    <use xlink:href="#star" x="-147" y="167" />

    <use xlink:href="#star" x="-136.5" y="230" />

    <use xlink:href="#star" x="-84" y="303.5" />

    <use xlink:href="#star" x="-21" y="251" />

    <use xlink:href="#star" x="157.5" y="156.5" />

    <use xlink:href="#star" x="231" y="104" />

    <use xlink:href="#star" x="147" y="251" />

    <use xlink:href="#star" x="210" y="188" />


    <path id="crownray-2" fill="#ffffff" d="
    M -48.78559582480219 -49.0
    A 55 55 0 0 1  -43.8582062256449 -56.8
    L -357.91159495594553 -47.119955391438666
    A 361 361 0 0 0  -357.9115949559456 47.119955391438545
    Z
  " />

    <path id="crownray0" fill="#ffffff" d="
    M -37.69850822842719 -63.6
    A 55 55 0 0 1  -30.47957429152628 -69.4
    L -286.4005558451359 -219.76287587214816
    A 361 361 0 0 0  -333.5205112365745 -138.14871908379743
    Z
  " />

    <path id="crownray2" fill="#ffffff" d="
    M -22.404238814272546 -73.8
    A 55 55 0 0 1  -13.699398986089943 -76.9
    L -138.1487190837974 -333.5205112365745
    A 361 361 0 0 0  -219.76287587214813 -286.40055584513595
    Z
  " />

    <path id="crownray4" fill="#ffffff" d="
    M -4.6096395300483275 -78.4
    A 55 55 0 0 1  4.6096395300483275 -78.4
    L 47.119955391438616 -357.91159495594553
    A 361 361 0 0 0  -47.119955391438616 -357.91159495594553
    Z
  " />

    <path id="crownray6" fill="#ffffff" d="
    M 13.699398986089943 -76.9
    A 55 55 0 0 1  22.404238814272546 -73.8
    L 219.76287587214813 -286.40055584513595
    A 361 361 0 0 0  138.1487190837974 -333.5205112365745
    Z
  " />

    <path id="crownray8" fill="#ffffff" d="
    M 30.47957429152628 -69.4
    A 55 55 0 0 1  37.69850822842719 -63.6
    L 333.5205112365745 -138.14871908379743
    A 361 361 0 0 0  286.4005558451359 -219.76287587214816
    Z
  " />

    <path id="crownray10" fill="#ffffff" d="
    M 43.8582062256449 -56.8
    A 55 55 0 0 1  48.78559582480219 -49.0
    L 357.9115949559456 47.119955391438545
    A 361 361 0 0 0  357.91159495594553 -47.119955391438666
    Z
  " />

</svg>
