<svg width="800" height="800" xmlns="http://www.w3.org/2000/svg"
    viewBox="-450 -450 900 900" xmlns:xlink="http://www.w3.org/1999/xlink">
  <defs>
    <path id="star" fill="#ffffff" d="
      M 0.0 -10.0
      L -3.5 -3.5
      L -10.0 -0.0
      L -3.5 3.5
      L -0.0 10.0
      L 3.5 3.5
      L 10.0 0.0
      L 3.5 -3.5
      Z
    " />
  </defs>
  <circle cs="0" cy="0" r="450" fill="black" />
  <path fill="#445566" d="
    M -368 0
    a 368 368 0 0 1  736 0
    a 368 368 0 0 1 -736 0
    Z
    M -450 0
    a 450 450 0 0 0  900 0
    a 450 450 0 0 0 -900 0
    Z
  " />


    <path id="textupper" fill="#bbccdd" fill-rule="evenodd" d="
    M -93.6 -422.2 L -97 -376.5 A 13.9 13.9 0 0 1 -99.9 -368.6 Q -102.5 -365.2 -106.6 -363.7 Q -110.7 -362.2 -114.9 -363.1 A 13.9 13.9 0 0 1 -122.2 -367.1 L -144.2 -389.2 L -146.5 -358.1 A 14.5 14.5 0 0 1 -149.4 -350.3 A 14.6 14.6 0 0 1 -156.1 -345.3 A 14.7 14.7 0 0 1 -164.4 -344.7 A 14.5 14.5 0 0 1 -171.8 -348.8 L -204.1 -381.3 A 7.3 7.3 0 0 1 -205.2 -382.8 Q -206 -384.2 -206 -386 A 7.4 7.4 0 0 1 -206 -386.1 A 6.5 6.5 0 0 1 -204.1 -390.8 A 21.8 21.8 0 0 1 -204.1 -390.8 A 6.8 6.8 0 0 1 -202.5 -392 Q -201.2 -392.7 -199.7 -392.8 A 7.6 7.6 0 0 1 -199.3 -392.8 A 6.5 6.5 0 0 1 -194.6 -390.9 A 7.9 7.9 0 0 1 -194.6 -390.8 L -162.2 -358.2 A 1.6 1.6 0 0 0 -161.7 -357.9 Q -161.3 -357.8 -160.8 -357.9 A 1.8 1.8 0 0 0 -160.7 -357.9 A 1.4 1.4 0 0 0 -160.3 -358.2 Q -160 -358.5 -159.9 -358.9 A 1.6 1.6 0 0 0 -159.9 -359.1 L -156.5 -404.9 Q -156.4 -406.9 -155.2 -408.5 A 6.4 6.4 0 0 1 -152.2 -410.7 A 6.5 6.5 0 0 1 -148.4 -411 A 6.9 6.9 0 0 1 -145 -409.2 L -112.7 -376.5 A 1.6 1.6 0 0 0 -112.2 -376.3 Q -111.8 -376.1 -111.4 -376.2 A 1.8 1.8 0 0 0 -111.3 -376.3 A 1.5 1.5 0 0 0 -110.8 -376.6 Q -110.5 -376.8 -110.4 -377.2 A 1.9 1.9 0 0 0 -110.3 -377.4 L -107.1 -423.2 A 6.5 6.5 0 0 1 -104.8 -427.8 A 7.9 7.9 0 0 1 -104.7 -427.8 Q -102.8 -429.5 -100.3 -429.4 A 7.6 7.6 0 0 1 -99.9 -429.4 A 6.9 6.9 0 0 1 -97.3 -428.7 A 6.5 6.5 0 0 1 -95.2 -427.1 A 6.6 6.6 0 0 1 -94.1 -425.4 Q -93.6 -424.2 -93.6 -422.9 A 8 8 0 0 1 -93.6 -422.2 Z M -271.2 -263.7 L -294.3 -238.2 A 6.5 6.5 0 0 1 -298.9 -236.1 A 7.9 7.9 0 0 1 -299 -236 A 6.5 6.5 0 0 1 -303.7 -237.7 A 7.7 7.7 0 0 1 -303.8 -237.8 A 6.5 6.5 0 0 1 -306 -242.3 A 7.9 7.9 0 0 1 -306 -242.4 A 6.5 6.5 0 0 1 -304.3 -247.2 A 7.7 7.7 0 0 1 -304.3 -247.3 L -281.1 -272.8 A 5.1 5.1 0 0 0 -280.1 -274.5 A 4.8 4.8 0 0 0 -279.8 -276.3 A 4.7 4.7 0 0 0 -281.4 -279.7 A 5.7 5.7 0 0 0 -281.4 -279.7 A 5.1 5.1 0 0 0 -283.1 -280.8 A 4.8 4.8 0 0 0 -285 -281 A 4.8 4.8 0 0 0 -288.4 -279.4 A 6.1 6.1 0 0 0 -288.4 -279.4 L -306 -260 A 18 18 0 0 1 -311.8 -255.7 A 18.3 18.3 0 0 1 -318.7 -254 A 18.3 18.3 0 0 1 -325.8 -255 A 18 18 0 0 1 -331.9 -258.7 Q -334.7 -261.3 -336.2 -264.5 A 19.4 19.4 0 0 1 -337.9 -271.4 A 18.3 18.3 0 0 1 -336.9 -278.5 A 18 18 0 0 1 -333.2 -284.6 L -310 -310.2 A 6.5 6.5 0 0 1 -305.4 -312.4 A 7.9 7.9 0 0 1 -305.3 -312.4 A 6.5 6.5 0 0 1 -300.6 -310.7 A 7.7 7.7 0 0 1 -300.5 -310.7 A 6.8 6.8 0 0 1 -298.9 -308.5 A 6.5 6.5 0 0 1 -298.3 -306 A 6.5 6.5 0 0 1 -300 -301.2 A 7.7 7.7 0 0 1 -300 -301.2 L -323.2 -275.6 A 4.6 4.6 0 0 0 -324.5 -272.2 A 5.7 5.7 0 0 0 -324.5 -272.1 A 4.8 4.8 0 0 0 -322.9 -268.7 A 4.7 4.7 0 0 0 -319.4 -267.4 A 5.7 5.7 0 0 0 -319.3 -267.4 A 4.7 4.7 0 0 0 -316 -269 A 5.7 5.7 0 0 0 -316 -269 L -298.4 -288.4 A 18.2 18.2 0 0 1 -292.6 -292.7 A 18.3 18.3 0 0 1 -285.6 -294.4 A 18.3 18.3 0 0 1 -278.6 -293.4 A 18.2 18.2 0 0 1 -272.4 -289.7 A 18 18 0 0 1 -268.1 -283.9 A 18.3 18.3 0 0 1 -266.4 -277 A 18.3 18.3 0 0 1 -267.4 -269.9 A 18.2 18.2 0 0 1 -271.2 -263.7 Z M 362.6 -107.6 L 351.7 -140.3 A 6.5 6.5 0 0 1 352 -145.3 A 7.9 7.9 0 0 1 352.1 -145.4 A 6.5 6.5 0 0 1 355.9 -148.8 A 7.7 7.7 0 0 1 356 -148.8 Q 358.6 -149.7 361.1 -148.4 A 6.5 6.5 0 0 1 364.4 -144.6 A 7.7 7.7 0 0 1 364.5 -144.5 L 375.4 -111.9 A 5.1 5.1 0 0 0 376.4 -110.1 A 4.8 4.8 0 0 0 377.9 -109 A 4.7 4.7 0 0 0 381.5 -108.7 A 5.7 5.7 0 0 0 381.6 -108.7 A 5.1 5.1 0 0 0 383.3 -109.7 A 4.8 4.8 0 0 0 384.5 -111.2 A 4.8 4.8 0 0 0 384.7 -114.9 A 6.1 6.1 0 0 0 384.7 -115 L 376.4 -139.9 Q 375.2 -143.4 375.5 -146.9 Q 375.7 -150.5 377.4 -153.8 A 18.3 18.3 0 0 1 381.7 -159.5 Q 384.4 -161.9 387.9 -163 A 18.2 18.2 0 0 1 393.9 -164 A 17.1 17.1 0 0 1 395.1 -164 A 19.4 19.4 0 0 1 402 -162.1 A 18.3 18.3 0 0 1 407.7 -157.7 A 18 18 0 0 1 411.2 -151.5 L 422.2 -118.8 A 6.5 6.5 0 0 1 421.8 -113.7 A 7.9 7.9 0 0 1 421.8 -113.6 A 6.5 6.5 0 0 1 418 -110.3 A 7.7 7.7 0 0 1 417.9 -110.3 A 6.8 6.8 0 0 1 415.2 -109.9 A 6.5 6.5 0 0 1 412.8 -110.6 A 6.5 6.5 0 0 1 409.4 -114.5 A 7.7 7.7 0 0 1 409.4 -114.5 L 398.5 -147.2 A 4.6 4.6 0 0 0 396.1 -150 A 5.7 5.7 0 0 0 396 -150 A 4.8 4.8 0 0 0 392.2 -150.3 A 4.7 4.7 0 0 0 389.4 -147.9 A 5.7 5.7 0 0 0 389.4 -147.8 A 4.7 4.7 0 0 0 389.1 -144.2 A 5.7 5.7 0 0 0 389.1 -144.1 L 397.5 -119.3 Q 398.7 -115.7 398.4 -112.1 A 18.3 18.3 0 0 1 396.5 -105.2 A 18.3 18.3 0 0 1 392.1 -99.6 A 18.2 18.2 0 0 1 385.9 -96 A 18 18 0 0 1 378.8 -95.1 Q 375.2 -95.3 371.9 -97 Q 368.6 -98.6 366.2 -101.3 A 18.2 18.2 0 0 1 362.6 -107.6 Z M 297.5 -234.9 L 292 -240.8 A 6.8 6.8 0 0 1 290.6 -243.1 A 6.3 6.3 0 0 1 290.3 -245.9 L 292.2 -267.7 L 279.1 -282 L 270.6 -274.3 A 6.5 6.5 0 0 1 265.9 -272.5 A 7.9 7.9 0 0 1 265.8 -272.5 A 6.5 6.5 0 0 1 261.2 -274.6 A 7.7 7.7 0 0 1 261.1 -274.7 A 6.5 6.5 0 0 1 259.4 -279.4 A 7.9 7.9 0 0 1 259.4 -279.5 A 6.5 6.5 0 0 1 261.5 -284.1 A 7.7 7.7 0 0 1 261.6 -284.2 L 275 -296.5 A 6.8 6.8 0 0 1 277.4 -297.9 A 6.5 6.5 0 0 1 279.9 -298.2 A 6.5 6.5 0 0 1 284.5 -296 A 7.7 7.7 0 0 1 284.5 -296 L 308.3 -270 A 7.2 7.2 0 0 0 313.4 -267.5 A 8.6 8.6 0 0 0 313.5 -267.5 A 7.2 7.2 0 0 0 318.8 -269.4 A 8.8 8.8 0 0 0 318.9 -269.5 A 7 7 0 0 0 320.6 -271.9 Q 321.2 -273.2 321.2 -274.6 A 7.4 7.4 0 0 0 320.8 -277.4 A 8.4 8.4 0 0 0 320.8 -277.5 A 7.3 7.3 0 0 0 319.3 -280 L 295.5 -306.1 A 6.5 6.5 0 0 1 293.7 -310.9 A 7.9 7.9 0 0 1 293.7 -310.9 A 6.4 6.4 0 0 1 295.9 -315.5 A 8.2 8.2 0 0 1 296 -315.6 A 6.5 6.5 0 0 1 300.7 -317.3 A 7.9 7.9 0 0 1 300.8 -317.3 A 6.5 6.5 0 0 1 305.4 -315.2 A 7.7 7.7 0 0 1 305.4 -315.1 L 329.2 -289.1 A 20.5 20.5 0 0 1 333.5 -282 A 20.9 20.9 0 0 1 334.7 -274 Q 334.5 -269.8 332.7 -266.1 A 20.3 20.3 0 0 1 327.9 -259.6 A 20.5 20.5 0 0 1 320.9 -255.3 A 20.9 20.9 0 0 1 312.9 -254.1 A 20 20 0 0 1 304.7 -256.2 L 304 -247.7 L 307.4 -243.9 A 6.5 6.5 0 0 1 309.2 -239.2 A 7.9 7.9 0 0 1 309.1 -239.1 A 6.5 6.5 0 0 1 307 -234.5 A 7.7 7.7 0 0 1 307 -234.4 A 6.5 6.5 0 0 1 302.2 -232.7 A 7.9 7.9 0 0 1 302.1 -232.7 A 6.5 6.5 0 0 1 297.5 -234.8 A 7.7 7.7 0 0 1 297.5 -234.9 Z M 73.4 -370.9 L 47.7 -375.8 A 6.5 6.5 0 0 1 43.5 -378.6 A 7.9 7.9 0 0 1 43.4 -378.7 A 6.5 6.5 0 0 1 42.4 -383.6 A 7.7 7.7 0 0 1 42.4 -383.7 A 6.5 6.5 0 0 1 45.2 -388 A 7.9 7.9 0 0 1 45.2 -388 A 6.5 6.5 0 0 1 50.2 -389.1 A 7.7 7.7 0 0 1 50.3 -389 L 76 -384 A 16.2 16.2 0 0 0 82.6 -384.1 A 16.7 16.7 0 0 0 88.4 -386.6 A 16.7 16.7 0 0 0 92.9 -391 A 16.2 16.2 0 0 0 95.4 -397.1 A 16 16 0 0 0 95.3 -403.7 A 17.2 17.2 0 0 0 92.9 -409.5 Q 91.1 -412.2 88.4 -414 A 16.2 16.2 0 0 0 82.3 -416.5 L 63.2 -420.2 L 60 -404 A 6.5 6.5 0 0 1 57.3 -399.8 A 7.9 7.9 0 0 1 57.2 -399.7 A 6.5 6.5 0 0 1 52.2 -398.7 A 7.7 7.7 0 0 1 52.2 -398.7 A 6.5 6.5 0 0 1 47.9 -401.5 A 7.9 7.9 0 0 1 47.9 -401.5 A 6.5 6.5 0 0 1 46.8 -406.5 A 7.7 7.7 0 0 1 46.8 -406.6 L 51.3 -429.4 A 6.5 6.5 0 0 1 54 -433.6 A 7.9 7.9 0 0 1 54.1 -433.7 A 6.5 6.5 0 0 1 59.1 -434.7 A 7.7 7.7 0 0 1 59.1 -434.7 L 84.9 -429.7 A 30.4 30.4 0 0 1 95.9 -425.2 A 27.8 27.8 0 0 1 104 -417 A 30.1 30.1 0 0 1 108.5 -406.5 A 29.2 29.2 0 0 1 108.6 -394.6 Q 107.4 -388.5 104.1 -383.6 A 29.8 29.8 0 0 1 95.9 -375.4 A 29.5 29.5 0 0 1 85.4 -370.9 Q 79.6 -369.7 73.4 -370.9 Z M 327.8 -188.4 L 314.6 -211.1 A 6.5 6.5 0 0 1 313.9 -216.1 A 7.9 7.9 0 0 1 313.9 -216.2 A 6.5 6.5 0 0 1 317 -220.2 A 7.7 7.7 0 0 1 317 -220.3 A 6.5 6.5 0 0 1 322.1 -221 A 7.9 7.9 0 0 1 322.1 -221 A 6.5 6.5 0 0 1 326.2 -217.9 A 7.7 7.7 0 0 1 326.2 -217.8 L 339.4 -195.2 Q 341.1 -192.2 343.8 -190.2 Q 346.4 -188.3 349.4 -187.5 A 16.7 16.7 0 0 0 355.7 -187 A 16.2 16.2 0 0 0 362 -189.2 Q 364.9 -190.8 366.9 -193.5 A 17.2 17.2 0 0 0 369.7 -199.2 A 16.3 16.3 0 0 0 370.1 -205.5 A 16.2 16.2 0 0 0 368 -211.8 L 358.2 -228.6 L 343.9 -220.3 A 6.5 6.5 0 0 1 338.9 -219.6 A 7.9 7.9 0 0 1 338.8 -219.7 A 6.5 6.5 0 0 1 334.8 -222.7 A 7.7 7.7 0 0 1 334.7 -222.8 A 6.5 6.5 0 0 1 334 -227.8 A 7.9 7.9 0 0 1 334.1 -227.9 A 6.5 6.5 0 0 1 337.1 -231.9 A 7.7 7.7 0 0 1 337.2 -232 L 357.3 -243.6 A 6.5 6.5 0 0 1 362.3 -244.3 A 7.9 7.9 0 0 1 362.4 -244.3 A 6.5 6.5 0 0 1 366.4 -241.3 A 7.7 7.7 0 0 1 366.5 -241.2 L 379.6 -218.5 A 30.4 30.4 0 0 1 383.5 -207.2 A 27.8 27.8 0 0 1 382.6 -195.8 A 30.1 30.1 0 0 1 377.7 -185.4 Q 374.1 -180.7 368.7 -177.5 Q 363.4 -174.4 357.5 -173.7 Q 351.7 -173 345.9 -174.5 Q 340.3 -176 335.6 -179.5 A 29.2 29.2 0 0 1 327.8 -188.4 Z M 152.2 -360.7 L 155.8 -359.2 Q 162.3 -356.5 167.7 -357.2 A 15.6 15.6 0 0 0 171.1 -358.1 A 6.4 6.4 0 0 1 176 -358 A 7.6 7.6 0 0 1 176.3 -357.9 A 6.6 6.6 0 0 1 179.8 -354.2 A 8 8 0 0 1 179.8 -354.2 A 6.4 6.4 0 0 1 179.7 -349.3 A 7.6 7.6 0 0 1 179.6 -349 A 6.6 6.6 0 0 1 175.9 -345.5 A 8 8 0 0 1 175.9 -345.5 A 28.1 28.1 0 0 1 163.8 -343.6 A 36.6 36.6 0 0 1 155.5 -345.1 A 46.3 46.3 0 0 1 150.7 -346.8 L 147 -348.3 A 42.5 42.5 0 0 1 140 -352 A 34.6 34.6 0 0 1 135.5 -355.5 A 29.8 29.8 0 0 1 128.3 -365.6 Q 126 -370.9 126.1 -376.8 A 31 31 0 0 1 128.2 -387.4 A 35.7 35.7 0 0 1 128.6 -388.5 Q 131 -394.3 135.1 -398.5 Q 139.3 -402.7 144.7 -404.8 A 29.8 29.8 0 0 1 156.9 -406.8 A 36 36 0 0 1 165.5 -405.3 A 44.8 44.8 0 0 1 170.2 -403.6 L 173.8 -402.1 A 41.5 41.5 0 0 1 182.9 -397 A 29.7 29.7 0 0 1 192.5 -384.8 A 6.4 6.4 0 0 1 192.6 -379.8 A 7.7 7.7 0 0 1 192.6 -379.7 A 7.8 7.8 0 0 1 192.6 -379.6 A 6.5 6.5 0 0 1 189 -376 A 6.4 6.4 0 0 1 183.9 -375.9 A 7.9 7.9 0 0 1 183.8 -375.9 A 8 8 0 0 1 183.7 -376 A 6.6 6.6 0 0 1 180.1 -379.5 A 14.8 14.8 0 0 0 177.4 -383.8 A 18.5 18.5 0 0 0 175.9 -385.3 A 23 23 0 0 0 172.1 -388 A 30.6 30.6 0 0 0 168.6 -389.7 L 165 -391.2 A 29.9 29.9 0 0 0 159.7 -392.9 Q 154.6 -394 150.3 -392.6 A 14.3 14.3 0 0 0 142.6 -386.4 A 20.9 20.9 0 0 0 141 -383.3 A 19.4 19.4 0 0 0 139.6 -378.3 A 14 14 0 0 0 140.9 -370.1 Q 143.5 -364.9 150.2 -361.6 A 34.1 34.1 0 0 0 152.2 -360.7 Z M 257.5 -340.2 L 250 -298.3 A 6.8 6.8 0 0 1 249.4 -296.4 Q 248.7 -295 247.2 -294 A 6.5 6.5 0 0 1 242.3 -292.8 A 7.9 7.9 0 0 1 242.2 -292.8 A 6.3 6.3 0 0 1 240.4 -293.5 A 7.9 7.9 0 0 1 239.5 -294 A 6.7 6.7 0 0 1 237.2 -296.8 A 6.1 6.1 0 0 1 236.7 -300.1 A 7.7 7.7 0 0 1 236.8 -300.7 L 244.3 -342.6 A 6.2 6.2 0 0 0 243.9 -346.3 A 6.5 6.5 0 0 0 241.6 -349.2 A 6.3 6.3 0 0 0 238.1 -350.3 A 6.8 6.8 0 0 0 234.5 -349.4 L 197.9 -327.6 A 6.7 6.7 0 0 1 192.8 -326.8 A 6.8 6.8 0 0 1 191.2 -327.4 Q 189.8 -328.2 188.9 -329.5 A 7.4 7.4 0 0 1 188.7 -329.9 Q 187.3 -332.3 187.9 -335 Q 188.6 -337.5 190.7 -338.9 A 7.4 7.4 0 0 1 191 -339.1 L 227.5 -360.9 A 18.4 18.4 0 0 1 232.8 -363.1 A 21.3 21.3 0 0 1 238.5 -363.8 A 19.6 19.6 0 0 1 249.2 -360.2 A 19.4 19.4 0 0 1 256.3 -351.4 Q 258.6 -346 257.5 -340.2 Z M 19 -378.2 L -23.7 -377.9 A 6.5 6.5 0 0 1 -28.4 -379.8 A 7.9 7.9 0 0 1 -28.5 -379.9 A 6.5 6.5 0 0 1 -30.5 -384.5 A 7.7 7.7 0 0 1 -30.5 -384.6 L -30.8 -431.1 A 6.5 6.5 0 0 1 -28.9 -435.8 A 7.9 7.9 0 0 1 -28.8 -435.9 A 6.5 6.5 0 0 1 -24.2 -437.9 A 7.7 7.7 0 0 1 -24.1 -437.9 A 6.5 6.5 0 0 1 -19.4 -436 A 7.9 7.9 0 0 1 -19.3 -435.9 A 6.5 6.5 0 0 1 -17.3 -431.3 A 7.7 7.7 0 0 1 -17.3 -431.2 L -17.1 -391.4 L 19 -391.6 A 6.5 6.5 0 0 1 23.7 -389.7 A 7.9 7.9 0 0 1 23.7 -389.7 A 6.5 6.5 0 0 1 25.7 -385 A 7.7 7.7 0 0 1 25.7 -384.9 A 6.5 6.5 0 0 1 23.8 -380.2 A 7.9 7.9 0 0 1 23.8 -380.2 A 6.5 6.5 0 0 1 19.1 -378.2 A 7.7 7.7 0 0 1 19 -378.2 Z M 376.6 33.6 L 377.9 11.9 L 381 12.1 A 11.5 11.5 0 0 0 382.1 13.4 A 15.2 15.2 0 0 0 383.3 14.5 A 15.9 15.9 0 0 0 385.3 16 A 19.2 19.2 0 0 0 386.4 16.6 A 25.3 25.3 0 0 0 388.9 17.7 A 31.3 31.3 0 0 0 390.6 18.3 Q 392.9 19 395.7 19.1 A 8.1 8.1 0 0 1 395.2 18.2 A 6.5 6.5 0 0 1 394.8 17.6 Q 394.5 16.8 394.2 15.9 A 10.9 10.9 0 0 1 393.8 14 A 11.8 11.8 0 0 1 393.7 12.9 Q 393.7 12.3 393.8 11.7 A 17.3 17.3 0 0 1 393.8 11.7 A 13.8 13.8 0 0 1 394.7 7.4 A 13 13 0 0 1 395 6.7 A 11.8 11.8 0 0 1 397.2 3.5 A 11.1 11.1 0 0 1 397.8 2.8 Q 399.6 1.2 402 0.3 A 12.4 12.4 0 0 1 405.5 -0.4 A 15.6 15.6 0 0 1 407.4 -0.4 A 13.8 13.8 0 0 1 411.6 0.5 A 13 13 0 0 1 412.4 0.9 A 12.8 12.8 0 0 1 416.2 3.7 Q 417.9 5.5 418.7 7.9 Q 419.6 10.4 419.5 13.2 A 14.2 14.2 0 0 1 423.9 12.7 A 13.4 13.4 0 0 1 428.8 14 Q 431.1 15 432.8 16.8 A 12.1 12.1 0 0 1 435.3 21 A 12.5 12.5 0 0 1 436 24.9 A 15.2 15.2 0 0 1 436 26.3 A 14.1 14.1 0 0 1 435.4 29.5 A 12 12 0 0 1 434.7 31.4 A 12.1 12.1 0 0 1 431.6 35.3 A 12.6 12.6 0 0 1 427.4 37.6 A 13.4 13.4 0 0 1 422.4 38.2 A 14.2 14.2 0 0 1 418.1 37.3 A 15.1 15.1 0 0 1 417.4 40.6 A 12.9 12.9 0 0 1 416.7 42.4 Q 415.5 44.7 413.6 46.3 A 12.1 12.1 0 0 1 409.5 48.7 A 13.6 13.6 0 0 1 404.7 49.4 A 15.5 15.5 0 0 1 404.4 49.4 A 14.8 14.8 0 0 1 401.4 48.9 A 12 12 0 0 1 399.2 48 A 12.1 12.1 0 0 1 395.3 45 A 12.6 12.6 0 0 1 392.9 40.8 A 13.6 13.6 0 0 1 392.3 36 A 15.5 15.5 0 0 1 392.3 35.7 A 16.2 16.2 0 0 1 392.4 34.5 A 11.9 11.9 0 0 1 392.6 33.4 A 9.6 9.6 0 0 1 393 32.2 A 8 8 0 0 1 393.2 31.6 Q 393.6 30.8 394.1 30.1 Q 394.5 29.3 395.1 28.5 A 13.2 13.2 0 0 1 395.1 28.5 Q 392.3 28.3 390 28.8 A 24.5 24.5 0 0 0 387.2 29.4 A 20.1 20.1 0 0 0 385.6 29.9 A 18.1 18.1 0 0 0 383.4 30.9 A 15.1 15.1 0 0 0 382.2 31.6 A 18.3 18.3 0 0 0 380.9 32.7 Q 380.2 33.2 379.7 33.8 A 11.5 11.5 0 0 0 379.7 33.8 L 376.6 33.6 Z M -348.1 147.7 L -339 167.5 L -341.8 168.8 A 11.5 11.5 0 0 0 -343.5 168.1 A 15.2 15.2 0 0 0 -344.9 167.7 A 15.9 15.9 0 0 0 -347.4 167.3 A 19.2 19.2 0 0 0 -348.7 167.3 A 25.3 25.3 0 0 0 -351.5 167.5 A 31.3 31.3 0 0 0 -353.2 167.8 A 22.6 22.6 0 0 0 -356.2 168.7 A 28 28 0 0 0 -358.1 169.5 Q -357.2 169.9 -356.6 170.4 Q -355.9 171 -355.2 171.6 Q -354.6 172.3 -354 173.1 Q -353.4 174 -352.9 175.1 A 13.8 13.8 0 0 1 -351.7 179.3 A 13 13 0 0 1 -351.6 180.1 A 11.8 11.8 0 0 1 -352 184 A 11.1 11.1 0 0 1 -352.3 184.8 Q -353.1 187.1 -354.8 189 A 12.4 12.4 0 0 1 -357.6 191.3 A 15.6 15.6 0 0 1 -359.2 192.2 A 13.8 13.8 0 0 1 -363.4 193.4 A 13 13 0 0 1 -364.2 193.4 A 12.8 12.8 0 0 1 -368.9 192.7 A 12.1 12.1 0 0 1 -373.1 190.2 Q -375.1 188.4 -376.3 185.9 A 14.2 14.2 0 0 1 -380 188.4 A 13.4 13.4 0 0 1 -384.9 189.6 A 12.6 12.6 0 0 1 -389.7 189 A 12.1 12.1 0 0 1 -393.9 186.4 A 12.5 12.5 0 0 1 -396.3 183.4 A 15.2 15.2 0 0 1 -397 182.1 A 14.1 14.1 0 0 1 -398 179.1 A 12 12 0 0 1 -398.2 177 Q -398.3 174.4 -397.4 172.2 Q -396.5 169.9 -394.7 168.1 A 13.4 13.4 0 0 1 -390.6 165.2 A 14.2 14.2 0 0 1 -386.4 164 A 15.1 15.1 0 0 1 -387.4 160.7 A 12.9 12.9 0 0 1 -387.6 158.8 A 12.1 12.1 0 0 1 -386.7 153.9 A 12.1 12.1 0 0 1 -384.2 149.8 A 13.6 13.6 0 0 1 -380.3 147 A 15.5 15.5 0 0 1 -380 146.9 A 14.8 14.8 0 0 1 -377.2 145.9 A 12 12 0 0 1 -374.7 145.6 Q -372.2 145.5 -369.9 146.4 Q -367.7 147.3 -365.8 149.1 A 13.6 13.6 0 0 1 -363 153 A 15.5 15.5 0 0 1 -362.9 153.3 A 16.2 16.2 0 0 1 -362.4 154.4 A 11.9 11.9 0 0 1 -362.1 155.4 A 9.6 9.6 0 0 1 -361.9 156.6 A 8 8 0 0 1 -361.8 157.3 A 14 14 0 0 1 -361.8 159.1 A 8.2 8.2 0 0 1 -361.9 159.9 Q -361.9 160.4 -362 160.9 A 13.2 13.2 0 0 1 -362 160.9 A 22.9 22.9 0 0 0 -359.2 159.4 A 18.8 18.8 0 0 0 -357.6 158.2 A 24.5 24.5 0 0 0 -355.4 156.4 A 20.1 20.1 0 0 0 -354.2 155.2 A 18.1 18.1 0 0 0 -352.8 153.3 A 15.1 15.1 0 0 0 -352.1 152.1 A 18.3 18.3 0 0 0 -351.4 150.5 Q -351.1 149.7 -350.9 149 A 11.5 11.5 0 0 0 -350.9 149 L -348.1 147.7 Z M -326 -191.4 L -328 -188 A 42.5 42.5 0 0 1 -332.6 -181.5 A 34.6 34.6 0 0 1 -336.7 -177.5 Q -341.6 -173.4 -347.6 -171.7 A 26.8 26.8 0 0 1 -359 -170.9 A 31 31 0 0 1 -369.2 -174.3 A 35.7 35.7 0 0 1 -370.3 -174.9 A 32.1 32.1 0 0 1 -377.7 -180.7 A 29.6 29.6 0 0 1 -379.3 -182.7 Q -383 -187.3 -384.3 -193 A 29.8 29.8 0 0 1 -384.7 -205.3 A 36 36 0 0 1 -382.1 -213.7 A 44.8 44.8 0 0 1 -379.9 -218.1 L -377.9 -221.5 A 42.5 42.5 0 0 1 -373.3 -228 A 34.6 34.6 0 0 1 -369.2 -232 A 29.8 29.8 0 0 1 -358.3 -237.8 A 26.8 26.8 0 0 1 -346.9 -238.6 A 31 31 0 0 1 -336.7 -235.1 A 35.7 35.7 0 0 1 -335.7 -234.6 A 32.1 32.1 0 0 1 -328.3 -228.7 A 29.6 29.6 0 0 1 -326.6 -226.8 Q -323 -222.1 -321.6 -216.5 A 29.8 29.8 0 0 1 -321.2 -204.1 A 36 36 0 0 1 -323.8 -195.8 A 44.8 44.8 0 0 1 -326 -191.4 Z M -436.6 31.4 L -436.7 31.1 A 46.2 46.2 0 0 0 -434.7 28.9 A 61.7 61.7 0 0 0 -432.6 26.4 A 304.7 304.7 0 0 1 -429.5 22.3 A 345.4 345.4 0 0 1 -428.4 20.9 Q -426.2 18 -423.8 15.1 A 38.7 38.7 0 0 1 -418.4 9.8 Q -415.5 7.4 -412.3 5.9 A 19.9 19.9 0 0 1 -405.1 4 A 17.6 17.6 0 0 1 -401.9 4 A 13.5 13.5 0 0 1 -399.1 4.7 A 15.1 15.1 0 0 1 -396.6 5.7 A 11.6 11.6 0 0 1 -394.6 7.1 A 12.1 12.1 0 0 1 -391.6 11 A 11.5 11.5 0 0 1 -390.4 15.4 A 15.6 15.6 0 0 1 -390.5 18.8 A 14.1 14.1 0 0 1 -390.7 19.7 Q -391.1 21.8 -392.3 23.5 A 14.2 14.2 0 0 0 -390.2 23 A 16.6 16.6 0 0 0 -389.4 22.7 A 18.1 18.1 0 0 0 -386.7 21.5 A 20.2 20.2 0 0 0 -386.3 21.3 A 21.1 21.1 0 0 0 -384.2 19.8 A 24.5 24.5 0 0 0 -383.5 19.2 A 17.9 17.9 0 0 0 -380.9 16.3 L -377.8 16.1 L -376.2 37.8 L -379.3 38 A 15.2 15.2 0 0 0 -382.2 35.7 A 14.3 14.3 0 0 0 -382.3 35.6 A 31 31 0 0 0 -384.8 34.2 A 27.7 27.7 0 0 0 -385.4 33.9 A 18.6 18.6 0 0 0 -388.3 33.1 A 16.9 16.9 0 0 0 -388.7 33 A 20.2 20.2 0 0 0 -391 32.6 A 17.7 17.7 0 0 0 -391.7 32.6 A 9.8 9.8 0 0 1 -389.5 36.1 A 14.9 14.9 0 0 1 -388.7 39.6 A 17.1 17.1 0 0 1 -388.6 40.3 Q -388.4 42.6 -389.2 45 Q -390 47.2 -391.6 49.1 A 10.8 10.8 0 0 1 -394.2 51.4 A 13.7 13.7 0 0 1 -395.7 52.2 A 13.8 13.8 0 0 1 -399 53.3 A 18.1 18.1 0 0 1 -401.5 53.7 Q -405.4 54 -408.9 52.9 Q -412.4 51.8 -415.5 49.9 A 46.9 46.9 0 0 1 -421.6 45.4 A 90.9 90.9 0 0 1 -427 40.3 A 618 618 0 0 0 -430.8 36.6 A 543.6 543.6 0 0 0 -432.1 35.4 A 44.7 44.7 0 0 0 -434.4 33.2 A 33.3 33.3 0 0 0 -436.6 31.4 Z M 345.3 153.7 L 380.4 147.1 L 399 177.6 L 363.9 184.3 L 345.3 153.7 Z M -424.5 -110.9 L -409.3 -158 A 6.5 6.5 0 0 1 -406 -161.8 A 7.9 7.9 0 0 1 -406 -161.9 A 6.5 6.5 0 0 1 -400.9 -162.3 A 7.7 7.7 0 0 1 -400.8 -162.3 A 6.8 6.8 0 0 1 -398.4 -161 A 6.5 6.5 0 0 1 -396.9 -158.9 A 6.5 6.5 0 0 1 -396.5 -153.8 A 7.7 7.7 0 0 1 -396.5 -153.8 L -411.7 -106.7 A 6.5 6.5 0 0 1 -415 -102.8 A 7.9 7.9 0 0 1 -415 -102.8 A 6.4 6.4 0 0 1 -420 -102.4 A 8.2 8.2 0 0 1 -420.2 -102.4 A 6.5 6.5 0 0 1 -424 -105.7 A 7.9 7.9 0 0 1 -424.1 -105.7 A 6.5 6.5 0 0 1 -424.5 -110.8 A 7.7 7.7 0 0 1 -424.5 -110.9 Z M -402.3 -103.7 L -387.2 -150.8 A 6.5 6.5 0 0 1 -383.9 -154.7 A 7.9 7.9 0 0 1 -383.8 -154.7 A 6.5 6.5 0 0 1 -378.8 -155.2 A 7.7 7.7 0 0 1 -378.7 -155.2 A 6.5 6.5 0 0 1 -374.8 -151.9 A 7.9 7.9 0 0 1 -374.8 -151.8 A 6.5 6.5 0 0 1 -374.3 -146.8 A 7.7 7.7 0 0 1 -374.4 -146.7 L -389.6 -99.6 A 6.5 6.5 0 0 1 -392.8 -95.7 A 7.9 7.9 0 0 1 -392.9 -95.7 A 6.5 6.5 0 0 1 -397.9 -95.2 A 7.7 7.7 0 0 1 -398 -95.3 A 6.5 6.5 0 0 1 -401.9 -98.5 A 7.9 7.9 0 0 1 -401.9 -98.6 A 6.5 6.5 0 0 1 -402.4 -103.6 A 7.7 7.7 0 0 1 -402.3 -103.7 Z M -380.2 -96.6 L -365 -143.7 A 6.5 6.5 0 0 1 -361.8 -147.6 A 7.9 7.9 0 0 1 -361.7 -147.6 A 6.5 6.5 0 0 1 -356.6 -148 A 7.7 7.7 0 0 1 -356.6 -148 A 6.5 6.5 0 0 1 -352.7 -144.8 A 7.9 7.9 0 0 1 -352.6 -144.7 A 6.5 6.5 0 0 1 -352.2 -139.6 A 7.7 7.7 0 0 1 -352.2 -139.6 L -367.4 -92.5 A 6.5 6.5 0 0 1 -370.7 -88.6 A 7.9 7.9 0 0 1 -370.7 -88.6 A 6.5 6.5 0 0 1 -375.8 -88.1 A 7.7 7.7 0 0 1 -375.9 -88.1 A 6.5 6.5 0 0 1 -379.7 -91.4 A 7.9 7.9 0 0 1 -379.8 -91.5 A 6.5 6.5 0 0 1 -380.2 -96.5 A 7.7 7.7 0 0 1 -380.2 -96.6 Z M -53.6 -428 L -47.1 -381.9 A 6.5 6.5 0 0 1 -48.3 -377 A 7.9 7.9 0 0 1 -48.4 -377 A 6.5 6.5 0 0 1 -52.7 -374.4 A 7.7 7.7 0 0 1 -52.8 -374.4 A 6.5 6.5 0 0 1 -57.7 -375.6 A 7.9 7.9 0 0 1 -57.8 -375.6 A 6.5 6.5 0 0 1 -60.4 -380 A 7.7 7.7 0 0 1 -60.4 -380.1 L -66.9 -426.1 A 6.5 6.5 0 0 1 -65.6 -431.1 A 7.9 7.9 0 0 1 -65.6 -431.1 A 6.5 6.5 0 0 1 -61.2 -433.7 A 7.7 7.7 0 0 1 -61.2 -433.7 A 6.5 6.5 0 0 1 -56.3 -432.5 A 7.9 7.9 0 0 1 -56.2 -432.4 A 6.5 6.5 0 0 1 -53.6 -428.1 A 7.7 7.7 0 0 1 -53.6 -428 Z M -339.6 -194.7 L -337.7 -198.1 A 29.9 29.9 0 0 0 -335.3 -203.1 Q -333.6 -208.1 -334.4 -212.5 A 14.3 14.3 0 0 0 -339.5 -221 A 20.9 20.9 0 0 0 -342.4 -222.9 A 19.4 19.4 0 0 0 -347.2 -225 A 14 14 0 0 0 -355.5 -224.7 Q -361 -222.8 -365.1 -216.6 A 34.1 34.1 0 0 0 -366.3 -214.8 L -368.3 -211.3 A 29.9 29.9 0 0 0 -370.6 -206.4 Q -372.4 -201.4 -371.5 -197 A 14.3 14.3 0 0 0 -366.4 -188.5 A 20.9 20.9 0 0 0 -363.5 -186.5 A 19.4 19.4 0 0 0 -358.7 -184.5 A 14 14 0 0 0 -350.5 -184.8 Q -344.9 -186.7 -340.8 -192.9 A 34.1 34.1 0 0 0 -339.6 -194.7 Z M 234 -332.1 A 8.6 8.6 0 0 0 231.5 -334.7 A 8.6 8.6 0 0 0 228.3 -336.1 A 9.2 9.2 0 0 0 224.8 -336.1 Q 223.1 -335.8 221.6 -334.8 A 8.6 8.6 0 0 0 219 -332.4 A 8.6 8.6 0 0 0 217.6 -329.1 A 9.2 9.2 0 0 0 217.6 -325.7 A 9.2 9.2 0 0 0 218.8 -322.5 A 8.6 8.6 0 0 0 221.3 -319.9 A 8.6 8.6 0 0 0 224.6 -318.5 Q 226.3 -318.1 228.1 -318.4 A 8.8 8.8 0 0 0 231.3 -319.6 A 8.6 8.6 0 0 0 233.9 -322.1 A 8.6 8.6 0 0 0 235.3 -325.4 Q 235.6 -327.1 235.3 -328.9 A 9.7 9.7 0 0 0 234 -332.1 Z
    " />
    <path id="textlower" fill="#bbccdd" fill-rule="evenodd" d="
    M -43.5 436 L -77.7 431.5 A 6.5 6.5 0 0 1 -82.1 429 A 7.9 7.9 0 0 1 -82.1 429 A 6.5 6.5 0 0 1 -83.5 424.1 A 7.7 7.7 0 0 1 -83.5 424 A 6.5 6.5 0 0 1 -81 419.6 A 7.9 7.9 0 0 1 -80.9 419.6 A 6.5 6.5 0 0 1 -76 418.2 A 7.7 7.7 0 0 1 -75.9 418.2 L -41.8 422.6 A 5.1 5.1 0 0 0 -39.7 422.5 A 4.8 4.8 0 0 0 -38.1 421.7 A 4.7 4.7 0 0 0 -36.2 418.5 A 5.7 5.7 0 0 0 -36.2 418.5 A 5.1 5.1 0 0 0 -36.3 416.4 A 4.8 4.8 0 0 0 -37.2 414.8 A 4.8 4.8 0 0 0 -40.4 412.9 A 6.1 6.1 0 0 0 -40.5 412.9 L -66.5 409.5 Q -70.2 409 -73.3 407.2 Q -76.4 405.4 -78.6 402.5 Q -80.9 399.6 -81.8 396.1 A 18 18 0 0 1 -82.3 389 A 18.2 18.2 0 0 1 -80.6 383.2 A 17.1 17.1 0 0 1 -80 382.2 A 19.4 19.4 0 0 1 -75.3 376.8 A 18.3 18.3 0 0 1 -68.9 373.6 Q -65.4 372.6 -61.8 373.1 L -27.5 377.6 A 6.5 6.5 0 0 1 -23.1 380.1 A 7.9 7.9 0 0 1 -23.1 380.1 A 6.5 6.5 0 0 1 -21.7 385 A 7.7 7.7 0 0 1 -21.7 385.1 A 6.8 6.8 0 0 1 -22.6 387.7 A 6.5 6.5 0 0 1 -24.3 389.6 A 6.5 6.5 0 0 1 -29.2 390.9 A 7.7 7.7 0 0 1 -29.3 390.9 L -63.5 386.5 A 4.6 4.6 0 0 0 -67 387.4 A 5.7 5.7 0 0 0 -67.1 387.5 Q -68.7 388.7 -69 390.7 A 4.7 4.7 0 0 0 -68 394.3 A 5.7 5.7 0 0 0 -68 394.3 A 4.7 4.7 0 0 0 -64.8 396.2 A 5.7 5.7 0 0 0 -64.8 396.2 L -38.8 399.6 Q -35 400.1 -31.9 401.9 A 18.3 18.3 0 0 1 -26.6 406.6 A 18.3 18.3 0 0 1 -23.4 413 Q -22.4 416.4 -22.9 420.2 A 18 18 0 0 1 -25.2 427 A 18.3 18.3 0 0 1 -29.9 432.3 A 18.3 18.3 0 0 1 -36.3 435.5 Q -39.8 436.5 -43.5 436 Z M 238.7 368.2 L 231.7 372.1 A 6.8 6.8 0 0 1 229.2 373 A 6.3 6.3 0 0 1 226.3 372.6 L 205.5 366 L 188.7 375.5 L 194.3 385.5 A 6.5 6.5 0 0 1 194.9 390.5 A 7.9 7.9 0 0 1 194.9 390.6 A 6.5 6.5 0 0 1 191.8 394.6 A 7.7 7.7 0 0 1 191.8 394.7 A 6.5 6.5 0 0 1 186.7 395.3 A 7.9 7.9 0 0 1 186.7 395.3 A 6.5 6.5 0 0 1 182.6 392.2 A 7.7 7.7 0 0 1 182.6 392.1 L 173.6 376.2 A 6.8 6.8 0 0 1 172.8 373.6 A 6.5 6.5 0 0 1 173 371.1 A 6.5 6.5 0 0 1 176.2 367.1 A 7.7 7.7 0 0 1 176.2 367.1 L 206.9 349.7 A 7.2 7.2 0 0 0 210.4 345.3 A 8.6 8.6 0 0 0 210.5 345.2 A 7.2 7.2 0 0 0 209.8 339.6 A 8.8 8.8 0 0 0 209.8 339.6 A 7 7 0 0 0 207.8 337.4 Q 206.7 336.5 205.3 336.1 A 7.4 7.4 0 0 0 202.5 335.9 A 8.4 8.4 0 0 0 202.4 335.9 A 7.3 7.3 0 0 0 199.6 336.8 L 168.9 354.1 A 6.5 6.5 0 0 1 163.8 354.8 A 7.9 7.9 0 0 1 163.8 354.8 A 6.4 6.4 0 0 1 159.8 351.7 A 8.2 8.2 0 0 1 159.7 351.6 A 6.5 6.5 0 0 1 159.1 346.6 A 7.9 7.9 0 0 1 159.1 346.5 A 6.5 6.5 0 0 1 162.2 342.5 A 7.7 7.7 0 0 1 162.3 342.4 L 193 325.1 A 20.5 20.5 0 0 1 200.8 322.5 Q 204.9 322 208.9 323.2 Q 212.9 324.3 216.2 326.8 Q 219.4 329.3 221.5 332.9 A 20.5 20.5 0 0 1 224 340.8 Q 224.5 344.8 223.4 348.8 Q 222.2 353.1 219.5 356.3 L 227.7 359 L 232.1 356.4 A 6.5 6.5 0 0 1 237.1 355.8 A 7.9 7.9 0 0 1 237.2 355.8 A 6.5 6.5 0 0 1 241.2 358.9 A 7.7 7.7 0 0 1 241.3 359 A 6.5 6.5 0 0 1 241.9 364 A 7.9 7.9 0 0 1 241.9 364.1 A 6.5 6.5 0 0 1 238.8 368.1 A 7.7 7.7 0 0 1 238.7 368.2 Z M 131.3 398.8 L 103.9 407.1 L 107.2 418.1 A 6.5 6.5 0 0 1 106.7 423.1 A 7.9 7.9 0 0 1 106.7 423.2 A 6.5 6.5 0 0 1 102.8 426.4 A 7.7 7.7 0 0 1 102.7 426.5 A 6.5 6.5 0 0 1 97.7 426 A 7.9 7.9 0 0 1 97.6 425.9 A 6.5 6.5 0 0 1 94.4 422 A 7.7 7.7 0 0 1 94.3 422 L 89.1 404.5 A 6.8 6.8 0 0 1 88.8 401.8 A 6.5 6.5 0 0 1 89.6 399.4 A 6.5 6.5 0 0 1 93.6 396.1 A 7.7 7.7 0 0 1 93.6 396.1 L 127.4 385.9 A 7 7 0 0 0 130 384.5 A 7.6 7.6 0 0 0 131.8 382.3 A 7.4 7.4 0 0 0 132.6 379.7 A 8.4 8.4 0 0 0 132.6 379.6 A 7.3 7.3 0 0 0 132.3 376.6 A 7.1 7.1 0 0 0 128.8 372.3 A 8.9 8.9 0 0 0 128.8 372.3 A 7.4 7.4 0 0 0 125.6 371.4 A 7.3 7.3 0 0 0 123.1 371.7 L 89.3 381.9 A 6.5 6.5 0 0 1 84.2 381.4 A 7.9 7.9 0 0 1 84.2 381.4 A 6.4 6.4 0 0 1 80.9 377.5 A 8.2 8.2 0 0 1 80.9 377.4 A 6.5 6.5 0 0 1 81.4 372.4 A 7.9 7.9 0 0 1 81.4 372.3 A 6.5 6.5 0 0 1 85.3 369.1 A 7.7 7.7 0 0 1 85.4 369 L 119.3 358.8 Q 123.3 357.6 127.4 358 A 20.9 20.9 0 0 1 135.1 360.5 Q 138.8 362.4 141.4 365.6 Q 144 368.7 145.2 372.8 A 20.5 20.5 0 0 1 146 380.9 Q 145.6 385 143.6 388.7 A 20.9 20.9 0 0 1 138.5 395 Q 135.3 397.6 131.3 398.8 Z M -192.1 369.1 L -192.7 383.4 A 7.1 7.1 0 0 1 -193 385.3 A 6.3 6.3 0 0 1 -193.3 386 A 6.7 6.7 0 0 1 -193.6 386.6 A 6.3 6.3 0 0 1 -194.8 388.1 A 6.9 6.9 0 0 1 -197 389.4 A 7.8 7.8 0 0 1 -197 389.4 A 7 7 0 0 1 -199.6 389.9 A 6.5 6.5 0 0 1 -201.3 389.6 A 7.2 7.2 0 0 1 -202.3 389.2 A 5.9 5.9 0 0 1 -202.8 388.9 Q -204.4 388 -205.3 386.4 Q -206.2 384.8 -206.1 382.9 L -205.5 368.6 Q -205.4 364.8 -207.2 361.5 A 13.2 13.2 0 0 0 -212.2 356.3 A 13.2 13.2 0 0 0 -219.2 354.4 Q -222.9 354.4 -226.2 356.3 L -238.5 363.6 A 6.6 6.6 0 0 1 -242 364.6 A 6.6 6.6 0 0 1 -245.3 363.6 A 6.4 6.4 0 0 1 -247.1 362.1 A 6 6 0 0 1 -247.6 361.3 A 6.8 6.8 0 0 1 -248.5 359.1 A 6.4 6.4 0 0 1 -248.6 358.7 A 6.9 6.9 0 0 1 -248.5 356.2 A 6.6 6.6 0 0 1 -248.4 356.1 A 6.3 6.3 0 0 1 -247.7 354.4 A 6.7 6.7 0 0 1 -247.4 353.9 A 6.6 6.6 0 0 1 -245.8 352.3 A 7.8 7.8 0 0 1 -245.4 352.1 L -233 344.8 A 28 28 0 0 1 -224.1 341.3 A 28.9 28.9 0 0 1 -225.1 336.7 Q -225.5 334.4 -225.4 331.9 L -224.9 317.6 A 7.1 7.1 0 0 1 -224.5 315.8 A 6.3 6.3 0 0 1 -224.2 315 A 6.7 6.7 0 0 1 -223.9 314.5 A 6.6 6.6 0 0 1 -222.7 313 A 6.8 6.8 0 0 1 -220.5 311.6 A 6.6 6.6 0 0 1 -217.9 311.2 A 7.6 7.6 0 0 1 -217.8 311.2 A 6.7 6.7 0 0 1 -215.7 311.6 Q -214.4 312.1 -213.3 313.1 A 7.5 7.5 0 0 1 -213.2 313.3 A 6.6 6.6 0 0 1 -211.4 318.1 A 19.1 19.1 0 0 1 -211.4 318.1 L -212 332.4 Q -212.1 336.3 -210.3 339.5 A 13.4 13.4 0 0 0 -205.3 344.7 A 13.4 13.4 0 0 0 -198.4 346.7 Q -194.7 346.7 -191.3 344.7 L -179.1 337.4 A 6.5 6.5 0 0 1 -177.3 336.7 A 5.8 5.8 0 0 1 -176.5 336.5 Q -175.2 336.4 -173.9 336.7 A 6.6 6.6 0 0 1 -172.1 337.4 A 6.7 6.7 0 0 1 -171.6 337.8 A 6.6 6.6 0 0 1 -170.1 339.4 A 7.8 7.8 0 0 1 -169.8 339.8 A 7 7 0 0 1 -169 342.3 A 6.8 6.8 0 0 1 -169.1 344.9 A 6.6 6.6 0 0 1 -169.8 346.7 A 6.7 6.7 0 0 1 -170.2 347.2 A 6.6 6.6 0 0 1 -171.8 348.8 A 7.8 7.8 0 0 1 -172.2 349 L -184.4 356.3 A 25.3 25.3 0 0 1 -188.8 358.4 A 31.8 31.8 0 0 1 -193.4 359.7 Q -192 364.2 -192.1 369.1 Z M 61.4 381.1 L 63.2 404.3 A 35.7 35.7 0 0 1 63 411.9 A 30.7 30.7 0 0 1 62.2 415.7 A 31.1 31.1 0 0 1 58.6 423.8 A 28.7 28.7 0 0 1 57.2 425.8 Q 53.6 430.5 48.2 433.2 A 28.5 28.5 0 0 1 41 435.7 A 36.8 36.8 0 0 1 36 436.5 L 32.4 436.8 A 34.7 34.7 0 0 1 25.1 436.6 A 28.4 28.4 0 0 1 19.8 435.4 Q 14 433.6 9.7 429.5 A 30.1 30.1 0 0 1 3.7 421.3 A 34.6 34.6 0 0 1 3.2 420.3 A 33.7 33.7 0 0 1 1.4 415 A 35.8 35.8 0 0 1 0.5 409.5 A 39.3 39.3 0 0 1 0.5 409.2 L -1.3 386 A 6.5 6.5 0 0 1 0.2 381.2 A 7.9 7.9 0 0 1 0.3 381.1 A 6.5 6.5 0 0 1 4.8 378.8 A 7.7 7.7 0 0 1 4.8 378.7 A 6.5 6.5 0 0 1 9.7 380.3 A 7.9 7.9 0 0 1 9.7 380.3 A 6.5 6.5 0 0 1 12.1 384.8 A 7.7 7.7 0 0 1 12.1 384.9 L 13.9 408.1 Q 14 409.1 14.2 410.7 A 48.8 48.8 0 0 0 14.2 410.7 A 16.6 16.6 0 0 0 14.7 412.5 A 21.2 21.2 0 0 0 15.2 414 A 17.5 17.5 0 0 0 16.3 416.3 A 21.5 21.5 0 0 0 17.1 417.6 A 11.8 11.8 0 0 0 19.6 420.3 A 13.8 13.8 0 0 0 20.2 420.8 A 13.2 13.2 0 0 0 22.7 422.1 A 17.4 17.4 0 0 0 24.8 422.9 Q 27.1 423.5 30.2 423.4 A 27.5 27.5 0 0 0 31.3 423.4 L 34.9 423.1 A 24.7 24.7 0 0 0 37.7 422.7 Q 39.2 422.4 40.4 422 A 13.1 13.1 0 0 0 41.3 421.6 A 17 17 0 0 0 43.6 420.3 A 12.9 12.9 0 0 0 45.5 418.8 A 12.6 12.6 0 0 0 47.5 416.3 A 11.2 11.2 0 0 0 48.1 415.2 A 20.6 20.6 0 0 0 49 412.9 A 16.8 16.8 0 0 0 49.4 411.4 A 20.6 20.6 0 0 0 49.7 409.4 A 16.2 16.2 0 0 0 49.8 407.9 A 40.7 40.7 0 0 0 49.9 407 Q 49.9 406 49.8 405.3 A 12.5 12.5 0 0 0 49.8 405.3 L 48 382.1 A 6.5 6.5 0 0 1 49.5 377.3 A 7.9 7.9 0 0 1 49.6 377.2 A 6.5 6.5 0 0 1 54.1 374.9 A 7.7 7.7 0 0 1 54.2 374.9 A 6.5 6.5 0 0 1 59 376.4 A 7.9 7.9 0 0 1 59 376.5 A 6.5 6.5 0 0 1 61.4 381 A 7.7 7.7 0 0 1 61.4 381.1 Z M 276.1 275.6 L 315.3 292.4 Q 317.6 293.4 318.7 295.6 A 7.6 7.6 0 0 1 318.9 296 A 6.5 6.5 0 0 1 318.9 301.1 A 7.9 7.9 0 0 1 318.8 301.1 A 6.3 6.3 0 0 1 317.8 302.8 A 7.9 7.9 0 0 1 317.1 303.5 A 6.7 6.7 0 0 1 313.8 305.2 A 6.1 6.1 0 0 1 310.5 304.9 A 7.7 7.7 0 0 1 310 304.7 L 270.8 288 A 6.2 6.2 0 0 0 267.1 287.5 A 6.5 6.5 0 0 0 263.8 289.2 Q 262.4 290.5 261.9 292.3 A 6.8 6.8 0 0 0 262 296 L 275.1 336.5 A 6.7 6.7 0 0 1 274.6 341.7 A 6.8 6.8 0 0 1 273.7 343.1 Q 272.7 344.3 271.1 344.9 A 7.4 7.4 0 0 1 270.7 345 Q 268.1 345.9 265.6 344.6 Q 263.3 343.5 262.4 341.1 A 7.4 7.4 0 0 1 262.3 340.7 L 249.2 300.2 A 18.4 18.4 0 0 1 248.2 294.6 A 21.3 21.3 0 0 1 248.9 288.9 Q 250.4 283.2 254.7 279.2 A 19.4 19.4 0 0 1 264.9 274.3 A 19.6 19.6 0 0 1 276.1 275.6 Z M -276.2 259.2 L -240.1 293 A 6.5 6.5 0 0 1 -238 297.6 A 7.9 7.9 0 0 1 -238 297.6 A 6.5 6.5 0 0 1 -239.7 302.4 A 7.7 7.7 0 0 1 -239.8 302.5 A 6.8 6.8 0 0 1 -242 304.1 A 6.5 6.5 0 0 1 -244.5 304.6 A 6.5 6.5 0 0 1 -249.3 302.8 A 7.7 7.7 0 0 1 -249.3 302.8 L -285.4 269 A 6.5 6.5 0 0 1 -287.6 264.3 A 7.9 7.9 0 0 1 -287.6 264.3 A 6.4 6.4 0 0 1 -285.8 259.6 A 8.2 8.2 0 0 1 -285.7 259.5 A 6.5 6.5 0 0 1 -281.1 257.4 A 7.9 7.9 0 0 1 -281.1 257.4 A 6.5 6.5 0 0 1 -276.3 259.1 A 7.7 7.7 0 0 1 -276.2 259.2 Z M -308 293.2 L -271.9 326.9 A 6.5 6.5 0 0 1 -269.8 331.5 A 7.9 7.9 0 0 1 -269.8 331.6 A 6.5 6.5 0 0 1 -271.5 336.4 A 7.7 7.7 0 0 1 -271.6 336.4 A 6.5 6.5 0 0 1 -276.2 338.6 A 7.9 7.9 0 0 1 -276.3 338.6 A 6.5 6.5 0 0 1 -281 336.8 A 7.7 7.7 0 0 1 -281.1 336.8 L -317.2 303 A 6.5 6.5 0 0 1 -319.3 298.4 A 7.9 7.9 0 0 1 -319.3 298.3 A 6.5 6.5 0 0 1 -317.6 293.5 A 7.7 7.7 0 0 1 -317.5 293.5 A 6.5 6.5 0 0 1 -312.9 291.4 A 7.9 7.9 0 0 1 -312.8 291.4 A 6.5 6.5 0 0 1 -308.1 293.1 A 7.7 7.7 0 0 1 -308 293.2 Z M -292.1 276.2 L -256 310 A 6.5 6.5 0 0 1 -253.9 314.5 A 7.9 7.9 0 0 1 -253.9 314.6 A 6.5 6.5 0 0 1 -255.6 319.4 A 7.7 7.7 0 0 1 -255.7 319.5 A 6.5 6.5 0 0 1 -260.3 321.6 A 7.9 7.9 0 0 1 -260.4 321.6 A 6.5 6.5 0 0 1 -265.1 319.8 A 7.7 7.7 0 0 1 -265.2 319.8 L -301.3 286 A 6.5 6.5 0 0 1 -303.4 281.4 A 7.9 7.9 0 0 1 -303.4 281.3 A 6.5 6.5 0 0 1 -301.7 276.5 A 7.7 7.7 0 0 1 -301.6 276.5 A 6.5 6.5 0 0 1 -297 274.4 A 7.9 7.9 0 0 1 -296.9 274.4 A 6.5 6.5 0 0 1 -292.2 276.1 A 7.7 7.7 0 0 1 -292.1 276.2 Z M 278.7 300.4 A 8.6 8.6 0 0 0 275.7 302.2 Q 274.3 303.4 273.6 305.1 A 9.2 9.2 0 0 0 272.8 308.4 A 9.2 9.2 0 0 0 273.3 311.8 A 8.6 8.6 0 0 0 275.1 314.9 Q 276.3 316.3 278 317 A 9.2 9.2 0 0 0 281.3 317.8 Q 283 317.9 284.7 317.3 A 8.6 8.6 0 0 0 287.8 315.5 A 8.6 8.6 0 0 0 289.9 312.6 A 9.7 9.7 0 0 0 290.7 309.2 Q 290.8 307.5 290.3 305.8 A 8.6 8.6 0 0 0 288.4 302.7 Q 287.2 301.4 285.6 300.6 Q 283.9 299.9 282.2 299.9 A 9.7 9.7 0 0 0 278.7 300.4 Z
    " />
    
    <use xlink:href="#star" x="-21" y="-82" />

    <use xlink:href="#star" x="-13" y="-202" />

    <use xlink:href="#star" x="-35" y="-171" />

    <use xlink:href="#star" x="-45" y="-21" />

    <use xlink:href="#star" x="-72" y="-93" />

    <use xlink:href="#star" x="-57" y="-237" />

    <use xlink:href="#star" x="-51" y="-300" />

    <use xlink:href="#star" x="-62" y="-325" />

    <use xlink:href="#star" x="-220" y="249" />

    <use xlink:href="#star" x="-150" y="262" />

    <use xlink:href="#star" x="-334" y="82" />

    <use xlink:href="#star" x="-312" y="124" />

    <use xlink:href="#star" x="-347" y="-50" />

    <use xlink:href="#star" x="-340" y="-72" />

    <use xlink:href="#star" x="-309" y="-133" />

    <use xlink:href="#star" x="-312" y="-163" />

    <use xlink:href="#star" x="-202" y="-288" />

    <use xlink:href="#star" x="-214" y="-271" />

    <use xlink:href="#star" x="302" y="124" />

    <use xlink:href="#star" x="304" y="152" />

    <use xlink:href="#star" x="347" y="-23" />

    <use xlink:href="#star" x="299" y="-173" />

    <use xlink:href="#star" x="338" y="27" />

    <use xlink:href="#star" x="204" y="-283" />

    <use xlink:href="#star" x="184" y="-293" />

    <use xlink:href="#star" x="240" y="256" />

    <use xlink:href="#star" x="210" y="268" />

    <use xlink:href="#star" x="180" y="244" />

    <use xlink:href="#star" x="286" y="184" />

    <use xlink:href="#star" x="110" y="283" />

    <use xlink:href="#star" x="47" y="-316" />

    <use xlink:href="#star" x="27" y="-339" />

    <use xlink:href="#star" x="47" y="-209" />

    <use xlink:href="#star" x="72" y="-94" />

    <use xlink:href="#star" x="51" y="-25" />

    <use xlink:href="#star" x="24" y="-72" />

    <use xlink:href="#star" x="31" y="-153" />

    <use xlink:href="#star" x="9" y="-251" />


  <path id="center" fill="#fff" d="
    M 0 -30
    L -10 -20
    L -10 -30
    A 5 5 0 0 0 -20 -30
    L -20 20
    L -82 145
    L -80 160
    L -55 142
    L -35 138
    L -15 142

    L 0 153

    L 15 142
    L 35 138
    L 55 142
    L 80 160
    L 82 145
    L 20 20
    L 20 -30
    A 5 5 0 1 0 10 -30
    L 10 -20

    Z
  " />
  <path id="engines" fill="#567" d="
    M 35 142
    A 20 10 0 0 1 35 162
    A 20 10 0 0 1 35 142
    Z

    M -35 142
    A 20 10 0 0 0 -35 162
    A 20 10 0 0 0 -35 142
    Z
    " />
  <path id="stripes" stroke="#000" stroke-width="4" stroke-linecap="round" d="
    M 50 162
    L 48 149
    M 20 162
    L 22 149
    M 40 162
    L 39 146
    M 30 162
    L 31 146

    M -50 162
    L -48 149
    M -20 162
    L -22 149
    M -40 162
    L -39 146
    M -30 162
    L -31 146
    " />
  <path id="window" fill="#567" d="
    M 0 40
    L 5 40
    L 15 80
    L 0 83
    L -15 80
    L -5 40
    Z

    M 0 90
    L 17 87
    L 10 105
    L 0 105
    L -10 105
    L -17 87
    Z
  " />

  <g fill="#a23">
  <path id="trailOuter" d="
    M -60 175
    C -60 250 -80 300 -120 344.7
    A 365 365 0 0 0 -80 356.1
    C -50 300 -40 250 -40 175
    A 10 10 0 0 0 -60 175
    Z
  " />
  </g>
  <g fill="#862">
  <path id="trailInner" d="
    M -35 175
    C -35 280 -50 310 -70 358.2
    A 365 365 0 0 0 -30 363.8
    C -20 320 -15 250 -15 175
    A 10 10 0 0 0 -35 175
    Z
  " />
  </g>
  <path id="trailCenter" fill="#738" d="
    M -10 175
    C -10 300 -20 350 -20 364.5
    A 365 365 0 0 0 20 364.5
    C 20 350 10 300 10 175
    A 10 10 0 0 0 -10 175
    Z
  " />

  <use xlink:href="#trailOuter" fill="#33c" transform="scale(-1 1)" />
  <use xlink:href="#trailInner" fill="#383" transform="scale(-1 1)" />

<!--
  <g id="wings" fill="#bcd" transform="translate(-10 20)">

    <path id="wingtop" d="
      M -262 -227
      L -210 -270
      L -160 -125
      Z
    " />

    <path id="wingspan1" d="
      M -55 70
      L -30 20
      L -270 -220
      L -255 -130
      Z
    " />

    <path id="wingspan2" d="
      M -85 130
      L -60 80
      L -252 -112
      L -237  -22
      Z
    " />

    <path id="wingbot" d="
      M -90 140
      L -160 70
      L -120 200
      Z
    " />
  </g>
  -->

  <g id="wings" fill="#bcd">
    <path id="root" d="
      M -65 100
      C -90 -60 -150 -50 -90 -130
      C -90 -135 -90 -135 -100 -132
      C -188 -90 -75 40 -83 136
      Z
    " />

    <path id="wingtop1" d="
      M -120 -125
      C -40 -150 -140 -280 -100 -320
      C -200 -300 -110 -180 -120 -125
      Z
    " />

    <path id="wingtop2" d="
      M -140 -80
      C -100 -170 -200 -200 -170 -280
      C -250 -230 -180 -150 -140 -80
      Z
    " />

    <path id="wingside1" d="
      M -120 5
      C -150 -170 -250 -130 -230 -220
      C -300 -100 -220 -150 -120 5
      Z
    " />

    <path id="wingside2" d="
      M -100 60
      C -145 -90 -300 -80 -280 -150
      C -350 -20 -120 -10 -100 60
      Z
    " />

    <path id="wingside3" d="
      M -90 125
      C -80 -40 -300 35 -315 -70
      C -370 80 -120 40 -90 125
      Z
    " />

    <path id="wingbot1" d="
      M -90 140
      C -100 50 -270 95 -300 40
      C -300 150 -120 130 -90 140
      Z
    " />

    <path id="wingbot2" d="
      M -90 145
      C -180 125 -180 170 -260 130
      C -200 250 -120 150 -90 145
      Z
    " />

    <path id="wingbot3" d="
      M -85 147
      C -140 170 -160 220 -210 200
      C -170 250 -80 220 -85 150
      Z
    " />
  </g>

  <use xlink:href="#wings" transform="scale(-1 1)" />

</svg>
