<svg xmlns="http://www.w3.org/2000/svg" viewBox="-450 -450 900 900" xmlns:xlink="http://www.w3.org/1999/xlink">
  <defs>
    <path id="circleCW" fill="black" stroke="#bcd" style="stroke-width:15" d="
      M 0  377
      a 377 377 0 0 1  0 -754
      a 377 377 0 0 1  0  754
      Z
    " />
    <path id="circleCCW" fill="black" stroke="#bcd" style="stroke-width:15" d="
      M 0 -438 
      a 438 438 0 0 0  0  876
      a 438 438 0 0 0  0 -876
      Z
    " />
    <path id="star" fill="#fff" d="
      M -5 0
      Q -1 -1 0 -5
      Q  1 -1 5 0
      Q  1  1 0 5
      Q -1  1 -5 0
      Z
    " />
  </defs>
  <circle cx="0" cy="0" r="450" fill="black" />
  <use x="-21" y="-82" xlink:href="#star" />
  <use x="-13" y="-202" xlink:href="#star" />
  <use x="-35" y="-171" xlink:href="#star" />
  <use x="-45" y="-21" xlink:href="#star" />
  <use x="-72" y="-93" xlink:href="#star" />
  <use x="-57" y="-237" xlink:href="#star" />
  <use x="-51" y="-300" xlink:href="#star" />
  <use x="-62" y="-325" xlink:href="#star" />
  <use x="-220" y="249" xlink:href="#star" />
  <use x="-150" y="262" xlink:href="#star" />
  <use x="-334" y="82" xlink:href="#star" />
  <use x="-312" y="124" xlink:href="#star" />
  <use x="-347" y="-50" xlink:href="#star" />
  <use x="-340" y="-72" xlink:href="#star" />
  <use x="-309" y="-133" xlink:href="#star" />
  <use x="-312" y="-163" xlink:href="#star" />
  <use x="-204" y="-283" xlink:href="#star" />
  <use x="-214" y="-271" xlink:href="#star" />

  <use x="302" y="124" xlink:href="#star" />
  <use x="304" y="152" xlink:href="#star" />
  <use x="347" y="-23" xlink:href="#star" />
  <use x="299" y="-173" xlink:href="#star" />
  <use x="338" y="27" xlink:href="#star" />
  <use x="204" y="-283" xlink:href="#star" />
  <use x="184" y="-293" xlink:href="#star" />
  <use x="240" y="256" xlink:href="#star" />
  <use x="210" y="268" xlink:href="#star" />
  <use x="180" y="244" xlink:href="#star" />
  <use x="286" y="184" xlink:href="#star" />
  <use x="110" y="283" xlink:href="#star" />
  <use x="47" y="-316" xlink:href="#star" />
  <use x="27" y="-339" xlink:href="#star" />
  <use x="47" y="-209" xlink:href="#star" />
  <use x="72" y="-94" xlink:href="#star" />
  <use x="51" y="-25" xlink:href="#star" />
  <use x="24" y="-72" xlink:href="#star" />
  <use x="31" y="-153" xlink:href="#star" />
  <use x="9" y="-251" xlink:href="#star" />
  <path fill="#456" d="
    M -368 0
    a 368 368 0 0 1  736 0
    a 368 368 0 0 1 -736 0
    Z
    M -450 0
    a 450 450 0 0 0  900 0
    a 450 450 0 0 0 -900 0
    Z
  " />

  <text fill="#bcd" font-size="84" style="font-family: varino;" font-weight="bold" letter-spacing="8" word-spacing="30">
    <textPath xlink:href="#circleCW" text-anchor="middle" startOffset="50%">
      EOS WILDCARDS
    </textPath>
  </text>
  <text fill="#bcd" font-size="100" style="font-family: varino;" font-weight="bold" letter-spacing="0" word-spacing="38">
    <textPath xlink:href="#circleCW" text-anchor="end" startOffset="25%">
       &#x2665; &#x2660;
    </textPath>
  </text>
  <text fill="#bcd" font-size="100" style="font-family: varino;" font-weight="bold" letter-spacing="0" word-spacing="38">
    <textPath xlink:href="#circleCW" text-anchor="start" startOffset="75%">
       &#x2663; &#x2666;
    </textPath>
  </text>

  <text fill="#bcd" font-size="84" style="font-family: varino;" font-weight="bold" letter-spacing="16" word-spacing="44">
    <textPath xlink:href="#circleCCW" text-anchor="middle" startOffset="50%">
      EX SUPRA
    </textPath>
  </text>

  <path id="center" fill="#fff" d="
    M 0 -30
    L -10 -20
    L -10 -30
    A 5 5 0 0 0 -20 -30
    L -20 20
    L -82 145
    L -80 160
    L -55 142
    L -35 138
    L -15 142

    L 0 153

    L 15 142
    L 35 138
    L 55 142
    L 80 160
    L 82 145
    L 20 20
    L 20 -30
    A 5 5 0 1 0 10 -30
    L 10 -20

    Z
  " />
  <path id="engines" fill="#567" d="
    M 35 142
    A 20 10 0 0 1 35 162
    A 20 10 0 0 1 35 142
    Z

    M -35 142
    A 20 10 0 0 0 -35 162
    A 20 10 0 0 0 -35 142
    Z
    " />
  <path id="stripes" stroke="#000" stroke-width="4" stroke-linecap="round" d="
    M 50 162
    L 48 149
    M 20 162
    L 22 149
    M 40 162
    L 39 146
    M 30 162
    L 31 146

    M -50 162
    L -48 149
    M -20 162
    L -22 149
    M -40 162
    L -39 146
    M -30 162
    L -31 146
    " />
  <path id="window" fill="#567" d="
    M 0 40
    L 5 40
    L 15 80
    L 0 83
    L -15 80
    L -5 40
    Z

    M 0 90
    L 17 87
    L 10 105
    L 0 105
    L -10 105
    L -17 87
    Z
  " />

  <g fill="#a23">
  <path id="trailOuter" d="
    M -60 175
    C -60 250 -80 300 -120 344.7
    A 365 365 0 0 0 -80 356.1
    C -50 300 -40 250 -40 175
    A 10 10 0 0 0 -60 175
    Z
  " />
  </g>
  <g fill="#862">
  <path id="trailInner" d="
    M -35 175
    C -35 280 -50 310 -70 358.2
    A 365 365 0 0 0 -30 363.8
    C -20 320 -15 250 -15 175
    A 10 10 0 0 0 -35 175
    Z
  " />
  </g>
  <path id="trailCenter" fill="#738" d="
    M -10 175
    C -10 300 -20 350 -20 364.5
    A 365 365 0 0 0 20 364.5
    C 20 350 10 300 10 175
    A 10 10 0 0 0 -10 175
    Z
  " />

  <use xlink:href="#trailOuter" fill="#33c" transform="scale(-1 1)" />
  <use xlink:href="#trailInner" fill="#383" transform="scale(-1 1)" />

<!--
  <g id="wings" fill="#bcd" transform="translate(-10 20)">

    <path id="wingtop" d="
      M -262 -227
      L -210 -270
      L -160 -125
      Z
    " />

    <path id="wingspan1" d="
      M -55 70
      L -30 20
      L -270 -220
      L -255 -130
      Z
    " />

    <path id="wingspan2" d="
      M -85 130
      L -60 80
      L -252 -112
      L -237  -22
      Z
    " />

    <path id="wingbot" d="
      M -90 140
      L -160 70
      L -120 200
      Z
    " />
  </g>
  -->

  <g id="wings" fill="#bcd">
    <path id="root" d="
      M -65 100
      C -90 -60 -150 -50 -90 -130
      C -90 -135 -90 -135 -100 -132
      C -188 -90 -75 40 -83 136
      Z
    " />

    <path id="wingtop1" d="
      M -120 -125
      C -40 -150 -140 -280 -100 -320
      C -200 -300 -110 -180 -120 -125
      Z
    " />

    <path id="wingtop2" d="
      M -140 -80
      C -100 -170 -200 -200 -170 -280
      C -250 -230 -180 -150 -140 -80
      Z
    " />

    <path id="wingside1" d="
      M -120 5
      C -150 -170 -250 -130 -230 -220
      C -300 -100 -220 -150 -120 5
      Z
    " />

    <path id="wingside2" d="
      M -100 60
      C -145 -90 -300 -80 -280 -150
      C -350 -20 -120 -10 -100 60
      Z
    " />

    <path id="wingside3" d="
      M -90 125
      C -80 -40 -300 35 -315 -70
      C -370 80 -120 40 -90 125
      Z
    " />

    <path id="wingbot1" d="
      M -90 140
      C -100 50 -270 95 -300 40
      C -300 150 -120 130 -90 140
      Z
    " />

    <path id="wingbot2" d="
      M -90 145
      C -180 125 -180 170 -260 130
      C -200 250 -120 150 -90 145
      Z
    " />

    <path id="wingbot3" d="
      M -85 147
      C -140 170 -160 220 -210 200
      C -170 250 -80 220 -85 150
      Z
    " />
  </g>

  <use xlink:href="#wings" transform="scale(-1 1)" />

</svg>
