<svg xmlns="http://www.w3.org/2000/svg" width="270mm" height="180mm" viewBox="0 0 270 180" xmlns:xlink="http://www.w3.org/1999/xlink">

    <!-- small radius 52mm
         x = 26
         y1 = 15 (.0111)
         y2 = 30 (.0222)
      -->
    <defs>
        <polygon id="hexagon" points=" 0 30, 26 15, 26 -15, 0 -30, -26 -15, -26, 15 "/>
        <clipPath id="hexclip"> <use href="#hexagon"/> </clipPath>
        <clipPath id="hexleft">
            <polygon points=" -13 22.5, -13 -22.5, -26 -15, -26, 15 "/>
        </clipPath>
        <clipPath id="hexright">
            <polygon points="  13 22.5,  13 -22.5,  26 -15,  26, 15 "/>
        </clipPath>
        <clipPath id="hextop">
            <polygon points=" 0 30, 26 15, -26 15 "/>
        </clipPath>
        <clipPath id="hexbot">
            <polygon points=" 0 -30, 26 -15, -26 -15 "/>
        </clipPath>
        <image id="face" href="../images/{{ image }}" x="{{ imagex }}" y="{{ imagey }}" width="{{ imagew }}" clip-path="url(#hexclip)" />
        <g id="facebg">
            <image href="../images/{{ image }}" x="-50" y="-120" height="150" clip-path="url(#hextop)" />
            <image href="../images/{{ image }}" x="-50" y="-30" height="150" clip-path="url(#hexbot)" />
            <image href="../images/{{ image }}" x="-26" y="-30" width="100" clip-path="url(#hexleft)" />
            <image href="../images/{{ image }}" x="-74" y="-30" width="100" clip-path="url(#hexright)" />
        </g>
    </defs>
    <use href="#hexagon" fill="#fff" stroke="#000" x="40" y="140" stroke-width="1"/>
    <use href="#hexagon" fill="#fff" stroke="#000" x="92" y="140" stroke-width="1"/>
    <use href="#hexagon" fill="#fff" stroke="#000" x="144" y="140" stroke-width="1"/>
    <use href="#hexagon" fill="#fff" stroke="#000" x="196" y="140" stroke-width="1"/>
    <use href="#facebg" x="92" y="140"/>
    <use href="#facebg" x="144" y="140"/>
    <use href="#face" x="92" y="140"/>
    <use href="#face" x="144" y="140"/>

    <rect x="10" y="06" width="114" height="24" stroke="#000" stroke-width="1" fill="#fff"/>
    <rect x="10" y="30" width="114" height="24" stroke="#000" stroke-width="1" fill="{{ textbg }}"/>
    <rect x="10" y="54" width="114" height="24" stroke="#000" stroke-width="1" fill="{{ textbg }}"/>
    <rect x="10" y="78" width="114" height="24" stroke="#000" stroke-width="1" fill="#fff"/>

    <text id="callsign" fill="{{ textfg }}" font-family="ethnocentric,varino,black marker,chopsic,pasti,arial"
        font-weight="bold" letter-spacing="0" word-spacing="0" x="67" y="{{ texty }}" font-size="{{ textsz }}"
        text-anchor="middle" dominant-baseline="central">
        {{ callsign }}
    </text>
    <use href="#callsign" transform="rotate(180)" x="-134" y="-108" />

</svg>
